<svg width="181" height="183.16034" xmlns="http://www.w3.org/2000/svg">
 <g>
  <title>Layer 1</title>
  <path fill="#559E84" id="BD-F" d="m152.26233,172.58628l-4.58,0.48l-4.04,2.47l-1.8,0l-8.09,-4.44l-2.7,0l-0.9,1.48l-0.9,0l-2.24,-1.48l-3.15,-3.95l-2.7,0l-2.69,1.48l-2.7,-0.98l-1.35,-3.46l-3.14,-1.97l-1.35,-2.97l-0.45,-1.97l1.35,-1.98l0,-1.48l-4.5,0.49l-5.84,-0.99l-0.9,-1.48l-7.19001,0l-3.31,-3.05l0,0l0.76,-0.8l1.87,0.44l0.37,-2.09l-2.03,-0.01l-0.59,-1.05l-0.66,0.39l-1.85,-0.59l-1.07,0.62l-0.73,-0.96l-1.07,0.78l-1.79,-3.3l-1.43,0.24l-0.24,1.11l-1.54,-1.63l-0.05,-1.01l-2.63,-1.48l0.13,-3.05l-2.64,-1.67l1.33,-0.51l0.56,-1.23l-0.78,-1.63l1.26,-1.29l-0.29,-1.67l-0.67,-1.64l-1.63,-0.17l-0.39,-3.37l-1.21,-0.19l-1.42,0.92l-1.82,-0.9l-0.01,1.34l0.94,0.95l-0.34,0.71l-2.45,0.65l-0.39,-1.67l-2.6,0.53l-0.09,1.83l-1.05,0.97l-3.17,-0.08l-0.5,-0.93l-0.93,0.28l-0.17,-1.85l-2.2,-0.04l-1.41,-1.84l-1.07,0.95l-1.87,-0.16l-2.32,-1.26l-0.98,1.14l-0.19,-2.5l-0.67,-0.95l-0.98,0.72l-1.2,-0.95l-1.29,-1.6l0.32,-2.43l-2.58,0.02l-1.32,-1.57l-1.13,-0.07l0.38,-2.44l0.72,-0.75l-0.13,-3.38l-4.65,-0.91l-0.06,-1.36l-1.1,0.07l-0.24,-0.97l-1.61,-0.38l0.33,-1.83l-1.61,-0.55l-0.13,-0.81l-3.18,-0.97l-0.64,-1.62l-4.45,-3.02l0.37,-1.75l-0.54,-1.17l-0.64,-0.39l-1.06,0.13l-0.4,0.74l-0.8,-0.34l-0.48,1.24l-1.4,-0.28l-0.97,1.25l-1.29,-1.37l-0.8,-0.01l-1.07,1.48l-0.95,-0.22l-1.21,1.33l-0.72,-0.52l-0.24,-1.56l-2.28,-0.29l0.29,-1.4l-0.85999,-0.32l-0.61,-1.3l0.66,-1.08l-0.76,-0.72l1.10999,-0.96l-1.12999,-3.31l0.47,-0.54l-1.47,-0.42l-0.15,-0.87l-0.25,-1.78l0.69,-1.25l1.66,-0.46l0.45999,-2.37l0.97,-0.86l-0.35,-1.07l2.04,-2.43l-0.26,-1.15l4.04,-1.27l-1.31,-0.91l0.48,-0.62l0.29,-0.81l-0.24,-1.06l0.76,-0.36l-0.07,-0.87l-1.73,-1.54l-0.57,-1.15l1.82,-3l-0.45,-0.26l0.4,-2.04l1.59,-0.54l0.99,-0.75l2.01,-0.96l0.88,-0.81l-0.32,-0.76l1.35,-0.71l0.41,0.54l2.06,-0.26l1.64,-1.49l0.64,0.53l1.85,-0.56l1.21,-1.34l1.81,-0.61l0.77,-2.1l-0.83,-0.48l-0.01,-3.82l3.53,-3.34l2.5,-0.24l-0.86,-1.5l0.74,-0.65l2.18,-0.04l1.86,-3.81l0.39,1.45l2.34,1.1l0.3,-1.11l1.74,-0.05l-0.28,1.29l1.78,-1.24l-0.8,-0.39l-0.02,-0.93l0.43,-1.6l-0.65,0.11l-0.68,-1.22l0.4,-0.76l-1.34,-0.26l-0.2,-0.83l0.38,-0.98l-0.02,-0.89l-1.75,-1.89l0.35,-0.9l-4.28,-0.47l-1.44,0.05l-1.66,-2.11l-1.24,0.66l-2.21,-0.83l-1.1,4.3l-0.63,-2.14l-1.39,-1.28l0.02,-1.56l1.69,-1.92l0.82,-3.73l1.11,-1.33l-0.28,-1.46l0.69,-1.97l1.19,-0.99l-0.14,-0.82l2.25,-2.45l1,6.85l1.12,2.28l1.39,1.14l1.12,-1.18l2.24,0.61l0.73,2.84l2.89,0.83l0.18,2.54l3.22,-0.75l-0.83,1.18l1.03,0.51l-0.57,1.65l3.74,0.77l-0.17,-2.33l2.39,0.08l0.36,3.71l2.35,0.85l-0.34,0.95l1.4,0.15l0.9,1l1.58,-0.38l0.03,0.98l0.15,1.45l-0.7,0.73l1.39,1.8l-0.01,1.94l0.73,1.04l2.89,-2.15l1.31,0.19l1.16,2.02l-0.45,1.46l0.45,1.99l3.5,-1.3l2.12,1.29l-0.55,2.17l0.33,2.09l1.58,0.8l-0.28,0.63l1.29,1.22l3.59,-0.48l-1.6,-1.97l0.01,-2.04l1.89,-1.47l4.36,0.34l2.2,4.2l1.13,0.66l6.32,-0.88l1.67,0.66l0.51,-1.51l0.8,0.3l-0.74,-2.37l0.73,-0.32l-0.41,-1.33l-1.1,-0.27l-0.13,0.94l-1.75,0.21l-0.90999,-0.71l-0.73001,-1.23l-1.09999,1.14l-0.08,-0.89l-1.07,-0.31l0.03,-1.61l0.73,-0.47l0.72,-0.4l-1.42,-0.84l-0.1,-1.61l-2.16,-0.22l-0.43,2.25l-0.52,-1.07l-0.43,-0.63l-0.17,-1.08l-1.56,-0.86l-0.83,0.53l-0.6,-0.77l-0.13,-0.61l-0.25,-0.78l0.84,-0.73l0.1,-1.16l-1.37,-1.1l2.25,-0.17l-0.36,-1.49l0.22,-0.87l1.65,0.75l0.62,-1.08l-0.44,-1.25l1.03,-1.21l2.41,1.34l-0.39,1.07l0.96,1.75l0.55,-0.3l0.58,0.04l0.6,1.06l1.34,-0.08l1.14,1.91l0.84,-0.5l3.11,0.83l0.97,-0.47l0.83,0.6l-0.53,2.38l-0.93,0.47l1.5,0.44l0.4,2.48l-0.23,0.87l1.63,1.09l2.1,-0.17l-0.12,1.13l-0.25,1.07l-0.94,1.16l-1.68,-2.96l-0.35,1.05l0.57,1.62l-0.61,0.93l2.07,1.61l-0.2,1.36l1.74,1.91l0.04,1.88l0.75,0.9l-1.38,2.96l2.02,2.01l-0.75,0.26l0.55,1.66l1.26,1.38l2.27,0.73l1,-0.51l2.04,0.44l2.55,3.16l1.39,0.06l-1,2.87l1.47,0.32l0.54,1.23l2.03,-0.03l2.22,1.27l2.26,2.75l4.3,0.38l-0.12,-1.38l1.39,-1.06l0.16,-0.94l1.49,-0.64l0.88,1l-0.56,2.12l0.52,0.72l3.73,1.23l1.43,-1l1.38,0.63l1.22,-0.83l1.97,0.3l1.06,0.57l-1.17,1.11l0.23,1.94l1.34,0.61l1.07,-1.41l0.81,-0.12l1.19,0.39l0.1,-1.91l-0.76,-0.95l0.46,-2.18l0.14,-1.27l0.56,-0.81l1.94,-0.9l1.38,-0.89l1.99,-0.21l-1.46,-1.52l0.59,-1.25l-1.01,-1.73l-0.68,0.72l-0.5,0.54l-0.8,0.69l-1.39,-1.32l0.13,-0.68l0.31,-0.57l1.64,0.67l1.32,-1.29l-0.42,-0.93l-1.26,0.1l-0.64,1.07l-1.27,-4.19l0.47,-0.37l1.3,0.74l-0.08,-0.8l0.12,-0.99l0.52,-0.77l0.49,0.69l0.85,-0.04l1.69,0.74l0.68,-1.49l-1.66,0.02l-1.08,-0.77l0.4,-0.88l1.24,1.08l0.53,-0.59l-1.54,-2.1l0.1,-1.82l1.83,0.96l1.51,-0.02l0.83,-1.77l0.67,0.94l0.3,0.61l0.13,1.09l-1.34,0.26l-0.3,0.67l1.02,0.37l0.24,1.7l1.44,1.01l-1.62,0.39l-0.31,0.78l2.49,0.78l0.67,-1.52l0.41,1.3l2.64,-0.06l1.85,2.92l-1.08,1.91l2.62,0.39l-0.11,2.29l1.18,-0.07l-0.29,0.94l0.76,1.78l-1.42,0.34l0.36,0.86l-0.19,0.67l0.53,0.6l0.78,-0.57l0.84,-0.27l1.22,3.41l-0.79,1.74l0.5,0.77l1.57,0.4l-0.51,-1.71l0.49,-1.34l0.92,0.78l0.35,1.59l2.09,1.19l-0.31,0.69l-2.87,0.57l0.94,1.81l-1.7,-0.51l-0.48,0.81l1.67,0.79l2.93,-0.74l1.22,0.3l-0.83,2.16l-4.07,5.12l0.16,1.42l-0.87,0.3l0.04,1.63l-1.53,2.13l1.45,0.99l1.27,4.06l-1.11,4.47l0.57,1.35l1.67,0.5l-0.26,2.04l2.08,3.25l1.09,3.61l-1.4,6.32l0.21,1.84l-1.52,0.75l0.59,2.54l-0.84,2.25l0.14,2.68l-2.51,5.06l-5.36,-1.65l0,0l0.06,0.14l0,0l0.36,1.3l0.9,0.58l-0.28,2.16l0,0l-1.63,0.89l0,0l-1.12,-0.04l0,0l-0.25,0.11l0,0l-2.44,2.46l2.96,7.28l-0.63,2.52l0,0l0,0.32l0,0l0.59,1.46l-0.96,1.22l0,0l-0.21,0.08l0,0l-3.83,0.37l-2.45,4.47l-0.04,1.63l-2.11,2.88l0.15,3.1l0,0l-0.06,0.27l0,0l-1.14,2.05l0.66,1.06l0,0l0.32,0.24l0,0l0.33,-0.16l0,0l0.1,0.16l0,0l0.23,2.51l-0.71,0.99z"/>
 </g>

</svg>