<svg width="178.80637" height="173.16034" xmlns="http://www.w3.org/2000/svg">

 <g>
  <title>Layer 1</title>
  <path fill="#306856" id="BD-E" d="m158.26233,32.58628l1.08,5.15l0,0l0.2,0.59l0,0l1.35,2.7l0,0l-0.03,1.08l0,0l-0.47,2.36l1.13,1.75l0,0l-0.17,0.14l0,0l-0.45,0.01l0,0l-0.6,0.37l0,0l-1.09,0.74l0,0l0.04,0.58l0,0l2.09,5.53l2.03,2.06l2.5,1.3l1.06,-0.13l0,0l0.26,0.58l0,0l-1.48,0.2l-0.84,1.11l0,0l-0.15,0.77l0,0l1.29,1l0,0l0.28,0.12l0,0l0.6,-1.11l1.48,1.21l1.2,-1.05l0.95,0.88l0.1,2.13l0.62,0.42l0,0l0.23,0.35l0,0l-0.37,0.98l0,0l-0.99,0.61l0,0l1.65,1.82l0,1.38l0,0l0.49,0.41l0,0l-0.01,1.17l-1.18,0.79l0.04,4.1l-1.94,0.89l0,0l-0.03,0.64l0,0l1.4,4.44l0,0l-0.24,0.43l0,0l-0.66,0.39l0,0l-0.24,0.3l0,0l0,0.91l0,0l-0.13,0.29l0,0l-2.18,1.04l-0.07,1.67l0,0l-0.21,0.17l0,0l-0.41,-0.2l0,0l-0.55,0.32l0.4,0.59l0,0l0.81,0.25l0,0l0.36,0.14l0,0l0.45,1.26l-0.91,1.87l0,0l0.15,0.28l0,0l0.67,-0.27l0,0l0.1,0.19l0,0l-1.46,1.13l-0.06,1.18l-1.61,0.97l0,0l0.64,1l0,0l0.77,3.12l0,0l0.55,0.23l0,0l1.22,-0.28l0.71,3.46l-1.62,2.72l1.9,1.86l0,0l0.2,0.48l0,0l0.04,1.76l1.15,1.91l0,0l0.15,0.59l0,0l-0.56,4l0,0l0.05,0.78l0,0l1.43,6.54l0,0l-0.14,0.16l0,0l-1.18,0.27l0,0l-0.34,0.45l0,0l0.41,0.7l0,0l0.3,0.23l0,0l1.58,-0.23l0.41,1.29l1.14,0.7l-0.31,2.89l0.58,3.51l-0.85,1.65l-3.98,3.25l0,0l-0.38,0.04l0,0l-0.96,-0.22l0,0l-0.61,0.11l0,0l-4.28,3.31l-0.8,6.52l0,0l0.16,0.3l0,0l0.73,-0.01l0,0l0.41,0.61l0,0l0.14,1.97l0,0l0.14,0.35l0,0l-0.68,2.96l0,0l0.15,0.16l0,0l0.68,-1.34l2.74,4.94l0,0l-0.98,0.54l0,0l-1.15,0.29l-1.06,1.5l0,0l-1.21,-0.07l0,0l-1.28,0.46l0,0l-0.98,0.08l0,0l-4.14,-0.24l0,0l-0.34,0.32l0,0l-2.64,-0.19l-1.25,0.79l0,0l-0.51,0.05l0,0l-1.28,-0.11l0,0l-0.65,-0.88l0,0l-2.98,-0.16l0,0l-1.34,-0.77l0,0l-11.87,-9.23l0,0l-1.07,0.28l0,0l-3.76,-2.7l0,0l-0.45,-0.46l0,0l-1.07,-1.8l-5.18,-2.11l0,0l-0.77,-0.19l-0.67,1.21l0,0l-0.79,2.58l-1.96,1.28l0,0l-0.93,-0.39l0,0l-1.35,-3.99l0,0l-0.28,-0.01l0,0l-0.92,1.61l-1.02,0.47l-3.93,-1.37l-2.31,0.02l0,0l-0.26,-1.19l0,0l-3.01001,-1.05l-1.85,-5.96l0,0l-0.3,-0.44l0,0l-2.12,-6.49l0,0l-0.63,-0.96l0,0l-5.17,-0.55l0,0l-0.81,-0.2l0,0l-0.78,-0.41l-1.65,0.82l0.18,-1.08l0,0l-0.1,-0.05l0,0l-0.92,0.28l0,0l-0.22,0.18l0,0l0.19,1.13l0,0l-0.12,0.14l0,0l-3.04,1.22l0,0l-0.22,-0.01l0,0l0.66,-1.33l0,0l-0.16,-0.17l0,0l-1.28,0.51l0,0l-0.41,-0.07l0,0l-7.11,-2.46l-2.94,-3.01l-2.15,-4.07l0.44,-5.94l-1.39,-3l-1.59,-1.23l-3.03,-0.64l-4.1,0.93l-0.39,-0.9l-1.66,-0.18l-0.36,0.59l-1.41,-0.45l-0.26,-1.09l-1.55,-0.16l-1.38,3.17l-2.46,-4.88l-2.02,-0.05l-5.51,-3.31l-2.01,-0.51l-3.28,1.01l-2.35,-0.08l-3.16,-1.05l-5.42,-5.68l-7.05,-2.24l-2.27,-3.05l-2.62,-1.57l-4.12999,-4.43l-5.4,-9.07l-3.38,-3.09l5.08,-5.61l0.85,-2.03l-0.61,-0.88l0.7,-0.98l-0.4,-1.03l0.97,-0.14l0.83,-1.21l1.51,0.32l0.14,-2.57l1.40999,-1.76l1.18,-1.04l1.18,-1.9l1.56,-0.6l-0.19,-1.22l0.03,-1.18l-0.71,-0.73l1.46,-0.37l-2.81,-2.79l-0.08,-1.93l1.41,0.28l2.38,-2.11l4.49,-0.57l3.34,4.23l1.3,2.32l0.19,0.87l1.97,0.23l0.37,1.51l1.73,-1.14l2.36,-1.09l-2.02,-1.9l0.92,-0.73l0.52,-2.18l2.03,-1.28l1.97,1.4l1.6,-0.81l-0.74,-1.66l0.37,-0.74l1.86,-0.5l-0.36,-2.01l1.01,-1.37l1.14,0.04l1.62,-3l-1.62,-1.5l1.53,-2.99l-0.94,-4.83l1.86,-1.62l-0.4,-2.34l-1.28,-1.24l0.1,-2l2.41,-0.16l0.58,-1.59l2.06,0.17l0.11,0.65l3.36,0.48l-0.1,1.06l2.21,-0.36l-0.06,1.51l0.67,0.17l1.33,-0.18l1.07,-1.5l2.4,-1.25l5,0.56l1.1,-0.97l2.54,0.05l2.17,0.93l0.27,1.27l1.57,1.08l1.96,-1.36l0.45,1.1l2.44,0.83l1.02,-0.34l1.58,-3.15l1.25,-0.51l0.79,1.06l1.17,-0.03l1.04,2.08l1.94,-0.36l1.42,0.51l0.16,0.98l0.81,0.3l0.63,-1.84l1.65,0.1l-0.14,-1.72l-0.96,-0.19l-0.08,-1.6l1.32,0.49l0.94,-0.64l-0.72,-2.24l0.35,-1.54l2.25,-1.6l0,0l3.31,3.06l7.19001,0l0.9,1.48l5.84,0.99l4.5,-0.49l0,1.48l-1.35,1.98l0.45,1.98l1.35,2.96l3.15,1.98l1.35,3.46l2.7,0.99l2.7,-1.48l2.7,0l3.15,3.95l2.25,1.48l0.9,0l0.9,-1.48l2.7,0l8.09,4.44l1.8,0l4.05,-2.47l4.51,-0.59z"/>
 </g>
</svg>