<svg width="437.80637" height="601.16034" xmlns="http://www.w3.org/2000/svg">
 <g>
  <title>Layer 1</title>
  <path fill="#457b9d" id="BD-A" d="m241.11233,469.42628l-1.67,2.4l-5.61,7.07l-0.62,-3.3l-0.75,-2.85l0.08,-0.67l-0.69,-2.63l0.94,-3.84l4.02,-4.3l0.36,-0.39l1.22,-2.49l2.42,-2.29l2.37,-0.45l0.31,6.18l-1.09,2.4l-0.19,3.99l-1.1,1.17zm6.69,-24.42l-0.44,-1.65l0.1,-4.08l-0.75,0.48l-0.57,2.66l-1.2,1.9l-0.31,2.85l2.45,-2.4l0.72,0.24zm-5.7,-28.06l-0.29,-0.78l-3.93,-3.17l-0.7,0.45l1.87,4.26l3.52,2.19l0.26,-0.62l-0.1,-0.45l0.1,-0.73l-2.4,-0.92l1.44,-0.15l0.23,-0.08zm-5.3,-10.69l0.74,-1.28l0.43,1.27l0.73,-0.1l0.16,-0.81l-1.74,-2.17l-2,0.65l0.03,1.99l1.64,-0.31l-0.54,0.77l0.55,-0.01zm9.44,46.97l-0.34,-3.33l-3.1,0.39l-1.69,5.2l3.44,-0.56l1.69,-1.7zm-13.26,33.68l1.59,-1.26l-0.14,-0.86l-0.74,-1.18l-0.76,0.65l0.05,2.65zm6.09,-9.04l0.81,-0.41l1.09,-1.21l-1.15,-0.33l-2.26,2.06l1.51,-0.11zm-43.02,8.52l-2.42,2.23l-1.92,-0.16l-2.74,-2.19l0.64,-3.85l-0.62,-0.42l0.68,-2.13l3.59,-2.07l0.66,-1.26l-0.15,-2.34l1.59,-4.03l4.6,-4.1l1.65,-2.95l2.83,0.84l2.57,-1.4l0.9,-4.37l1.31,-2.64l-0.83,-3.4l-1.04,-0.28l0.05,-3.63l-1.25,-4.5l0.31,-2.32l0.66,-0.73l2.28,0.53l1.22,-0.56l1.2,-2.2l0.62,-4.91l2.68,-2.35l0.65,-3.39l3.83,-0.17l0.96,-1.34l0.03,-1.36l1.34,0.83l3.79,0.73l1.07,2.63l1.87,-1.6l-1.38,-3.7l3.34,-2.6l-1.4,-4.26l5.88,-0.94l5.45,3.78l0.75,1.14l0.57,2.94l1.64,2.72l-1.12,2.03l-0.52,-1.17l-0.03,4.17l3.95,4.98l-2.63,9.87l-1.17,1.93l-4.99,4.79l-1.43,3.61l-1.69,1.17l-0.58,1.3l-5.97,7.6l-3.97,-1.12l-1.18,0.49l-4.07,3.3l-2.52,6.87l-1.94,-1.19l-2.04,1.69l-0.71,2.24l-1.46,-0.8l-1.09,-1.64l-2.3,-0.97l-0.21,0.53l-2.93,0.62l-0.87,-0.7l-1.04,0.36l-1.82,2.82l1.04,2.31l-2.5,0.17l-0.63,0.87l0.23,1.68l-1.27,1.97zm44.46,-101.37l0.75,0.33l1.62,0.15l0.36,-1.97l-2.5,0.84l-0.23,0.65zm1.32,-9.36l-2.09,-4.28l-0.61,-1.23l-2.7,1.06l-0.76,-0.29l0.49,-0.29l2.57,-1.11l0.02,-0.84l-1.9,-0.28l-1.48,0.74l-2.71,2.32l-0.17,0.1l-4.27,1.29l-1.87,1.32l3.1,0.68l2.74,1.84l1.11,0.8l0.57,-0.61l3.47,7.03l2.75,-0.49l1.93,-1.66l0.47,-1.4l-0.66,-4.7zm-49.76,101.18l-3.93,-0.58l-1.78,-1.73l-0.83,-3.44l3.81,-1.63l0.7,-1.76l-0.47,-3.71l0.42,-2.32l3.67,-3.21l-1.04,-1.68l-3.51,-1.79l3.88,-1.43l1.25,-1.26l0.7,-3.83l1.77,-0.87l0.76,-1.65l-0.08,-2.35l-1.43,-3.75l1.82,-1.73l2.07,-3.6l3.42,-3.09l0.03,-2.74l1.77,-3.08l0.18,-0.76l1.48,-1.43l-0.68,-1.21l-1.93,0.45l0.52,-3.22l1.43,-2.94l-1.85,-1.65l-0.75,-3.2l3.05,-1.21l2.84,0.7l2.37,-0.95l1.38,0.34l1.2,-2.66l3.12,0.17l1.01,1.6l0.78,-0.08l2.97,-5.22l1.34,-0.65l-0.29,-2.86l1.12,-0.1l0.9,1.4l2.13,-0.48l0.6,-0.87l-0.96,-1.21l1.07,-1.21l2.07,0.52l2.95,2.89l0.94,2.25l-1.02,0.94l1.01,-0.21l0.4,10.42l-5.86,1.6l1.13,4.4l-2.44,1.96l-0.23,1.04l1.09,2.77l-1.08,1.1l-1.19,-1.97l-3.35,-0.62l-1.59,-1.01l-0.81,0.25l-0.44,2.16l-1.26,0.62l-1.86,-0.5l-1.48,0.48l-0.34,2.71l-3.35,4.1l-0.83,5.5l-0.89,0.35l-1.2,-0.53l-2.39,0.9l-0.7,1.18l0.92,9.98l2.03,3.72l-1.5,2.67l-0.83,3.89l-4.66,0.18l-2.82,3.72l-3.58,2.71l-2.01,3.63l-0.86,4.68zm40.09,-79.12l-0.97,-1.77l-1.21,-0.06l0.15,1.31l1.82,1.57l0.21,-1.05zm14.55,27.64l-2.26,1.15l-2.29,4.48l4.87,5.57l-0.36,-3.83l0.6,-3.98l-0.03,-0.56l0.34,-2.18l-0.87,-0.65zm1.31,51.89l-2.66,4.4l-1.18,4.07l2,-0.33l1.39,-0.13l2.33,-2.93l1.15,-1.32l1.49,-3.84l-2.29,-0.17l-2.23,0.25zm-3.95,-3.24l-1.92,-2.36l-1.63,1.58l-0.63,2.15l1.7,0.48l0.26,-0.01l1.68,0.99l1.37,-1.2l-0.83,-1.63zm-4.4,4.28l-3.17,0.54l-2.05,2.94l-0.07,1.55l0.77,2.26l5.35,0.69l-0.13,-1.31l1.2,-1.45l1.44,-4.86l0.37,-1.16l-1.77,-1.29l-1.94,2.09zm16.81,3.61l-1.5,1.35l-0.99,2.3l0.35,3.27l1.31,-0.17l2.45,-4.99l-0.74,-1.45l-0.88,-0.31zm6.1,1.65l-1.45,0.14l-1.53,3.01l1.36,-0.03l-0.11,-1.11l0.97,-0.84l0.09,0.94l0.58,0l0.91,-0.8l-0.19,-0.72l-0.63,-0.59zm-14.47,-63.63l-2,-0.84l-2.19,0.42l-0.96,1.29l0.47,1.54l1.33,0.78l0.81,1.82l2,0.39l-0.21,-2.69l-0.44,-1.43l0.42,-0.64l0.77,-0.64zm10.91,-0.22l8.99,11.16l-0.48,3.23l-1.97,3.54l0.08,10.43l-1.67,11.32l-1.09,2.93l-2.4,3.86l-4.35,3.24l-4.08,4.57l-3.79,1.12l-2.27,0.2l-1.18,-1.26l-1.8,-2.41l-0.26,-1.58l2.16,-6.7l0.42,-7.52l2.36,-2.87l2.55,-6.19l0.63,-5.67l-0.94,-3.78l-0.55,-16.7l-1.46,-2.2l-2.95,-0.95l-0.36,0.46l-1.6,-0.72l-2.57,-3.17l-3.63,-1.82l1.03,-1.69l2.88,-1.76l0.16,-1.78l-0.94,-3.06l-0.67,-0.44l-1.71,-0.11l0.13,-3.69l-0.42,-0.56l-0.85,-0.73l-0.03,4.21l-1.04,0.55l-2.55,-3.72l-0.59,-3.06l-1.19,-1.18l-0.81,0.23l-0.72,-2.29l-1.02,0.23l-1.2,1.66l-0.52,-0.03l0.51,1.04l0.47,1.46l-1.78,1.95l1.07,1.39l-1.65,1.01l-0.75,-1.74l-1.33,-0.14l-0.52,0.93l0.18,2.61l-0.99,0.65l-3.2,5.3l-1.12,-1.63l-3.41,-0.39l-1.27,2.83l-1.72,-0.42l-1.9,1.04l-2.81,-0.84l-3.36,1.32l0.73,3.79l1.85,1.43l-1.25,1.74l-0.91,4.15l0.62,0.67l1.98,-0.45l0.21,0.64l-1.64,1.32l-1.82,3.73l-0.08,2.77l-2.97,2.32l-2.68,4.45l-2.11,1.99l0.03,1.6l1.33,2.24l-0.73,2.4l-1.9,2.74l-0.62,3.69l-3.67,0.89l-1.07,0.98l0.34,2.54l3.65,1.37l-2.86,1.68l-1.38,1.82l-0.24,1.73l0.94,2.85l-3.66,3.14l-1.12,2.14l1.6,6.6l-1,1.39l-1.81,0.65l-2.04,-1.14l-0.5,-4.58l-1.4,-2.2l-1.54,-4.89l1.01,-6.68l-3.09,-8.9l-0.91,-5.52l5.01,-11.57l5.15,-4.38l1.16,-5.4l2.68,-0.15l-0.29,-0.66l-1.82,-0.28l-2.47,1.24l0.84,0.47l-0.44,3.33l-7.34,6.38l-2.23,-2.31l0.89,-2.79l0.09,1.23l3.04,-1.83l2.19,-0.45l0.81,-1.19l-1.07,-1.17l-2.18,0.39l-2.04,-0.6l-0.6,-1.28l0.67,-1.6l2.49,-0.05l4.37,1.17l-0.04,-1.33l-4.05,-0.26l2.89,-3.67l1.05,-4.22l-0.95,-1.05l-3.32,-0.48l0.83,-3.94l-3.23,-1.76l0.83,-1.72l1.36,1.52l0.88,-0.41l1.29,-1.16l-0.77,-0.9l-2.34,-0.8l-2.85,0.54l-0.91,-0.86l4.07,-2.93l2.19,0.49l0.28,-2.98l-1.89,0.13l0.12,-1.4l-0.89,-0.9l3.39,-0.6l-0.48,-1.57l-1.83,-0.22l1.91,-2.22l1.06,-0.68l-0.91,-3.77l2.34,1.1l5.04,-1.55l1.63,-6.28l2.26,-0.52l0.14,-3.46l1.06,-0.06l2.42,-3.51l2.67,-0.15l0.79,-3.22l0.73,-0.68l-0.74,-0.59l1.63,-0.48l0.97,-1.42l2.81,1.12l2.17,-1.46l1.83,2.34l-0.41,3.56l0.51,0.48l-0.9,1.87l0.88,2.21l0.68,-1.02l1.6,0.01l-0.56,0.84l0.37,0.65l1.63,-1.56l1.04,0.63l3.65,-0.29l0.23,-2.59l-1.55,-3.05l0.87,-2.38l4.82,-0.2l4.84,1.59l0.21,0.68l-1.17,1.09l-2.49,0.55l3.72,0.75l-2.4,0.92l5.35,2.23l0.7,0.39l4.01,3.15l2.08,4.38l-3.38,2.78l0.03,0.51l-1.61,3.06l0.54,2.19l0.92,0.58l0.13,0.65l1.33,-1.74l-1.98,-2.3l2.71,-3.03l0.18,-0.87l1.38,-0.67l9.11,1.71l3.1,2.67l1.61,2.61l-1.07,0.96l-2.03,0.45l-5.75,-0.45l-4.24,1.8l-2.71,-0.98l-1.04,0.36l2.43,0.69l1.04,1.68l2.51,-2.16l3.18,-0.48l0.68,0l0.34,0l2.63,0.51l1.64,0.91l4.74,14.58l2.11,2.3l2.42,1.32l1.55,6.18zm-44.87,56.51l1.13,1.09l-0.31,2.03l-3.43,7.8l-0.57,3.48l-3.45,2.94l-2.43,1.14l-2.95,-0.06l-4.89,-1.58l-2.35,-2.1l-0.02,-2.2l1.22,-0.38l1.71,-3.55l-0.06,-2.54l2.01,0.05l0.78,-0.6l-0.9,-2.69l2.07,-2.52l1.02,0.74l3.93,-0.96l1.74,1.22l0.22,1.22l0.54,-0.15l2.08,1.29l1.11,-3.13l1.8,-0.54zm10.1,-0.88l-0.15,-1.82l-3.88,2.91l-4.77,9.99l0.45,2.5l0.95,1.08l3.35,-0.5l1.66,-1.81l-1.81,-4.67l4.2,-7.68zm-0.67,-5.55l3.29,-2.78l-1.57,-0.48l-1.75,-0.55l-2.68,2.53l-2.25,4.08l0.19,1.85l-0.16,1.1l4.71,-5.2l0.22,-0.55zm2.42,16.68l2.71,-0.66l0.89,-1.26l0.39,-1.1l-3.51,1.47l-0.48,1.55zm1.29,3.56l-0.22,1.28l2.69,-0.56l-0.23,-2.2l-2.24,1.48zm4.3,-18.41l-1.27,-2.46l-4.62,2.52l-0.25,0.32l-0.94,1.16l0.38,2.37l-3.06,5.46l-0.88,1.82l0.49,3.14l1.66,1.22l0.83,-0.09l0.95,-1.89l5.16,-2.42l2.71,-3.14l-1.16,-8.01zm3.31,18.99l0.11,-1.34l-0.77,-0.28l-2.43,1.38l-0.53,1.86l0.45,1.2l1.37,0.11l2.94,-1.87l0.26,-0.61l-0.63,0.45l-0.77,-0.9zm2.76,-3.44l-1.66,-1.12l-1.88,2.1l3.94,1l0.6,-0.4l-0.42,-1.05l-0.58,-0.53z"/>
  <path fill="#457b9d" id="BD-B" d="m270.13233,436.57628l-0.31,3.81l-0.63,0.57l-0.38,-0.4l0.78,-2.27l-0.75,-0.56l-0.26,-0.81l1.22,-2.41l0.33,2.07zm2.38,8.41l0.88,-0.57l1.17,-3.22l-0.62,-2.27l-2.08,5.15l0.65,0.91zm5.74,-7.85l0.88,-1.58l0.03,-1.47l-1.17,-1.82l-1.9,1.09l-0.05,2.57l1.12,1.26l1.09,-0.05zm2.32,8.62l-1.72,-6.49l-1.38,0.42l-0.03,6.27l-7.52,19.23l1.22,1.31l1.17,1l0.83,-0.33l0.6,-2.85l4.14,-6.4l1.85,-4.56l0.84,-7.6zm5.08,-6.74l-1.2,-1.93l-2.29,2.02l1.33,1.76l2,-1.06l0.16,-0.79zm-1.9,5.34l-0.57,-1.51l-1.17,1.09l0.78,2.85l0.96,-2.43zm-4.07,-15.5l-0.31,0.98l1.32,7.28l1.25,1.01l1.64,-1.68l0.67,-2.36l0.64,-3.97l-2.6,-1.73l-2.61,0.47zm1.49,13.07l0.68,1.71l1.28,-1.29l-1.43,-1.54l-0.53,1.12zm-27.32,-61.27l-0.41,-0.68l-2.46,-3.08l-0.67,-0.34l-1.18,0.82l2.52,4.1l0.23,0.2l2.81,4.58l0.37,-0.39l0.39,-1.15l-1.59,-3.71l-0.01,-0.35zm-10.24,-27.84l0,-0.02l-0.14,0.17l0.14,-0.15zm33.92,78.92l-0.23,-2.07l-1.74,0.76l0.68,1.46l1.29,-0.15zm4.99,34.53l-2,-0.78l-0.83,0.45l-1.64,3.55l0.34,2.1l1.01,0.89l2.13,-1.17l1.48,-1.98l-0.36,-0.39l0.68,-1.4l-0.81,-1.27zm-9.99,-42.9l0.31,1.37l2.11,0.36l0.6,0.06l3.64,-1.37l-2.39,-3.56l-1.59,0.45l1.25,-0.87l-3.33,-2.83l-4.37,-0.39l-1.93,-1.32l-1.46,1.32l0.08,0.73l6.56,6.78l0.52,-0.73zm30.61,8.54l0.47,1.35l1.3,0.81l0.7,-2.16l-0.91,-1.12l-1.56,1.12zm12.57,-25.84l-0.31,-1.06l-1.33,-1.63l-3.38,-1.77l-2.52,1.54l1.15,4.8l2.47,3.08l2.89,0.87l2.27,1.65l1.33,-3.78l-0.05,-1.66l-2.52,-2.04zm-8.59,5.58l-1.43,-0.05l-0.55,-0.33l-0.73,1.73l0.88,3.64l1.77,-2.8l0.06,-2.19zm0.18,7.38l-1.41,2.72l-0.57,1.79l1.02,1.12l3.44,-4.31l0.29,-1.82l-0.83,-0.7l-1.94,1.2zm22.88,2.6l-5.99,-7.93l-1.64,-1.15l-2.4,1.35l0.34,0.67l-1.22,-0.14l-0.62,1.43l0.63,0.51l-0.75,0.25l1.64,7.73l1.69,4.48l3.41,5.88l2.79,1.23l2.21,-0.25l3.31,-1.51l0.76,-1.82l-0.39,-3.02l-3.77,-7.71zm33.78,62.9l-1.61,-2.24l-2.68,2.19l-0.56,2.54l1.13,5.08l-0.86,2.19l0.16,3.08l-0.91,1.83l0.54,1.46l0.71,-0.12l4.53,-12.24l-0.45,-3.77zm70.95,54.44l-2.69,-13.81l-1.7,-20.35l0.75,-10.7l0.86,-1.93l-0.56,-1.21l1.33,-4.75l-1.34,-5.6l-0.08,-6.01l-1.17,-3.78l0.56,-2l-3.24,-7.19l1.61,-1.06l2.09,1.85l0.37,-5.19l-0.86,-0.96l-0.66,-7.51l-1.08,-3.24l0.13,-3.18l-2.05,-7.14l-1.2,-12.97l-1.05,-3.39l-0.95,-0.83l0.85,-1.66l-0.06,-2.56l-1.2,-7.27l-2.13,-6.01l-1.13,-1.84l-1.01,-0.87l0.49,-1.05l-0.83,-1.16l0.01,-1.42l-1.75,-2.55l0.53,-0.93l-0.02,-1.06l-0.01,-1.29l-0.57,-1.61l-1.01,-2.19l-1.37,0.67l-1.32,-2.63l-1.23,-0.32l-0.85,-1.57l-1.98,-0.33l0.94,-5.27l0,-5.17l0.77,-2.04l-0.92,-2.96l-1.69,-1.88l0.72,-2.22l-0.81,-0.97l0.65,-2.26l-0.19,-2.45l-0.69,-0.82l-0.1,-4.61l4.45,-0.87l-0.77,-2.36l-1.07,-1.97l-0.12,-2l-1.39,-1.46l1,-2.77l-0.29,-1.25l-0.57,-0.87l-0.49,-0.8l-0.87,-0.24l0.18,-2.82l-0.87,-0.58l-0.21,-1.98l-0.88,0.31l-0.16,-2.52l-0.1,-0.86l-0.52,-1.44l-0.85,-1.17l-0.02,-3.51l-0.97,-0.93l0.49,-2.12l-1.52,-3.4l-0.77,-0.8l-0.02,-1.99l0.64,-0.99l-1.75,-0.49l1.26,-6.53l-2.41,-3.45l-1.63,0.16l-0.97,1.31l0.51,2.23l-0.82,2.19l-1.68,1.19l-0.69,-0.57l0.45,-3.15l-1.35,-1.2l-1.57,-0.36l-0.52,-3.16l-0.86,-0.09l-2,1.01l-4.18,5.7l-1.43,-0.07l-0.34,2.37l-1.53,0.94l-3.29,-1.73l-1.16,0.38l-3.7,-7.3l-2.02,0.21l-0.45,2.91l-1.41,1.76l1.35,6.5l-0.53,3.21l1.21,0.77l-0.27,4.19l0.65,0.88l-0.77,0.89l1.37,1.61l0.09,2.23l-3.12,1.35l0.5,2.55l-0.51,0.66l-3.59,-0.39l-5.26,4.19l-0.86,1.6l0.55,0.42l-3.35,4.23l-3.5,7.6l0.39,1.81l1.6,1.68l-0.07,1.91l0.75,1.4l0.59,3.86l0.72,0.78l-0.12,2.05l0.82,0.81l0.13,2.02l0.06,1.67l0.17,0.81l-0.9,0.86l-3.26,0.13l-0.46,2.33l-2.28,3.59l-2.39,2.1l-2.55,-1.35l-0.92,1.49l-1.22,0.01l-1.72,0.12l-0.41,0.36l-3.13,2.36l-1.35,0.38l0.67,-1.75l-1.36,-0.24l-1.32,1.27l-1.93,-1.34l-0.02,-1.34l-1.28,-0.51l0.41,-2.13l0.09,-1.82l-1.47,-0.09l0.27,-1.59l-0.2,-1.18l-0.75,-1.75l0.38,-0.78l-1.85,-1.87l0.75,-0.88l-1.37,-1.31l0.64,-0.95l-0.5,-1.42l-0.61,-1.54l-0.52,-0.76l-0.88,-2.6l-0.27,-1.35l-2.56,-0.32l1.52,-1.03l-0.76,-1.3l-1.41,-0.5l0.75,-1.14l-3.9,0.04l-1.02,1.16l-0.3,1.69l-0.77,0.28l-0.65,4.46l0.25,2.73l1.74,4.64l-0.19,1.22l0.4,1.15l0.96,0.42l-0.05,2.02l-1.85,0.75l-2.31,-1.24l-2.25,-3.66l-1.34,-5.15l-0.84,-0.68l-0.45,-8.41l-0.02,-1.33l-0.83,-2.12l0.57,-0.75l-1.51,-0.86l1.42,-1.18l-0.53,-1.23l-1.75,-0.68l0.49,-2.05l1.17,-0.36l1,-1.78l-2.41,0l-0.84,-0.97l-0.41,-0.63l-0.41,-3.87l-2.09,-3.28l-0.57,-4.19l-1.53,-0.49l0.15,-0.87l-1.12,-1.11l-1.9,-0.38l-0.25,-0.66l1.3,-2.45l-1.74,0.04l-0.05,-1.8l-1.81,-2.04l0.23,-0.81l-1.45,-0.51l-0.5,-7.31l1.4,1.36l1.79,0.19l0.34,0.85l1.03,-0.98l0.02,-3.15l-0.85,-0.5l-4,0.12l-0.36,-1.89l0.56,-3.01l1.12,-1.29l2.17,-0.12l1.76,0.32l0.97,1.02l0.89,-2.98l-0.19,-2.81l2.39,-4.34l-2.35,-4.44l-0.03,-1.66l1.62,-1.41l-1.33,-1.56l3.85,0.24l-0.95,-2.28l0.54,-1.53l1.11,-1.99l0.54,1.54l0.95,-0.48l0.63,-2.64l-0.91,-0.46l0.12,-1.57l1.01,0.12l0.49,-2.41l-0.94,-1.99l-1.48,-0.18l0.33,-3.59l-1.19,0.28l-0.93,-0.69l0.27,-1.33l1.85,-0.67l-1.92,-0.66l0.02,-1.63l-0.85,-0.22l1.34,-1.98l0.33,-1.81l2.3,-1.11l1.03,0.35l-0.16,-1.59l-2.85,0.9l-0.66,-0.62l0.76,-1.76l1.12,0.58l0.19,-1.2l0.82,0.33l0.93,-1.05l0.79,0.02l-0.02,-3.04l-1.29,-0.65l-1.03,0.48l-1.25,1.69l-0.34,1.63l0.46,0.56l-1.09,0.21l-7.35,-1.4l-1.98,-2.57l-3.39,2.45l-5.44,0.12l-0.4,2.07l1.42,0.98l-0.18,0.45l-5.06,-0.31l-1.97,2.88l-3.11,1.95l1.53,2.6l4.27,2.39l0.89,2.07l-1.02,1.94l-5.64,3.81l-1.53,2.86l0.4,4.1l-2.38,1.95l0.22,2.56l-2.42,1.98l-0.75,3.27l-2.01,1.68l-1.07,-0.06l-2.05,-1.94l-2.38,1.23l-5.02,-0.29l-1.95,0.89l-0.62,1.36l1.06,1.87l0.06,2.77l-3.45,4.13l-0.6,1.65l0.15,1.68l1.81,2.88l-0.83,2.85l-2.02,0.53l-2.98,-1.74l-3.32,0.62l-1.53,5.51l2.59,0.46l1.07,2.46l-1.29,0.27l-0.81,1.4l3.66,1.65l2.45,5.46l-2.48,1.57l-3.79,-1.47l-2.16,1.29l-2.67,0.35l-5.05,10.41l1.16,3.36l2.65,1.86l-0.52,3.17l3.68,8.43l2.26,-0.23l0.11,5.24l1.35,4.62l-1.33,3.27l-0.31,7l0.6,2.7l1.9,2.87l1.12,-1.18l1.33,0.06l2.47,3.5l2.27,5.13l2.13,2.56l-0.03,0.11l1.95,3.93l-0.47,5.03l3.88,7.58l2.55,3.42l0.91,0.11l0.63,0.45l2.63,0.53l1.02,1.88l9.18,6.06l7.01,8.12l3.67,-4.06l1.48,0l1.27,0.48l0.96,-0.62l0.5,0.34l0.39,0.48l-0.7,0.87l1.09,0.48l5.88,-3.76l1.43,0.51l1.75,-1.54l-1.85,-4.51l1.67,-2.16l1.87,-0.53l-0.86,-0.59l0.1,-1.32l-1.82,-2.33l-1.61,0.25l-0.52,-0.51l1.2,-0.03l-0.91,-2.08l-2.11,-0.11l-0.91,-2.05l-1.4,-0.17l0.26,-0.42l0.89,0.03l1.61,1.91l0.94,-0.9l0.76,0.37l2.21,2.16l3.83,-4.6l0.78,-0.37l3.12,-0.7l3.23,0.34l1.07,-0.45l0.23,-1.15l-2.57,-0.82l1.87,-1.29l2.27,1.63l0.18,1.35l1.07,0.76l1.2,-2.55l-0.91,-1.35l0.18,-1.07l-1.35,-0.87l1.74,-3.43l0.13,1.55l-1.07,1.43l2.84,2.81l0.68,3.37l-0.03,0.59l0.96,2.36l7.83,4.91l4.09,4.68l0.73,1.77l6.35,6.45l3.77,5.66l0.89,3.64l1.41,1.99l-0.36,0.73l1.04,1.29l2.66,11.7l-0.34,2.35l3.12,4.64l0.93,-0.68l0.6,0.32l-0.08,3.49l1.67,6.01l1.09,2.01l0.55,0.22l0.89,-0.94l0.36,0.83l-0.08,2.65l1.27,4.22l0.26,2.51l-0.81,1.9l1.52,2.51l2.52,8.83l0.35,3.46l-0.59,3.78l-5.15,14.16l0.64,1.51l1.45,1.46l0.62,-0.11l0.32,-0.75l0.67,0.89l-0.86,1.29l0.11,1.38l-0.7,0.08l0.08,2.29l-0.67,1.29l0.75,1.1l1.75,-0.56l-0.98,1.23l-0.95,-0.29l-0.59,0.73l0.16,0.7l1.1,0.81l-1.02,0.76l-1.31,-0.62l-0.89,1.54l0.3,0.7l3.44,4.09l1.42,0.65l0.48,-0.91l-1.02,-0.7l0.91,-0.4l-0.51,-0.89l0.75,-0.38l0.64,0.56l2.82,0.03l2.39,-0.81l1.21,-12.12l0.67,-1.56l1.22,4.51l-0.32,0.51l-1.08,1.83l0.6,5.93l-1.13,3.15l-1.31,1.32l-0.51,-0.1l-1.21,1.28l-0.48,-0.3l0.04,1.23l6.22,8.45l2.86,6.92l0.16,11.99l12.65,15.89l1.67,5.92l2.39,5.07l4.58,6.99l3.44,7.92l2.16,1.91l0.62,-1.58l-2.16,-8.44l-1.9,-4.67l-2.58,-2.68l-0.96,-3.47l0.1,-2.86l-1.09,-5.57l1.2,-2.83l-3.46,-4.13l-0.29,-2.55l0.27,-0.58l-1.92,-0.74l-1.62,-3.32l1.7,-3.9l0.52,0.35l1.46,-1.85l-2.29,-5.93l-0.51,-3.32l3.14,-2.84l2.23,-0.66l-0.09,-2.96l1.16,-0.81l0.25,-2.74l1.82,-0.03l1.4,1.04l1.48,-0.45l2.01,-3.7l2.35,-1.78l2.07,0.19l3.13,4.28l0.66,2.74l-0.43,2.17l0.9,1.57l6.16,1.85l0.97,-0.38l0.13,-1.4l1.53,0.31l1.82,-1.14l1.17,0.75l1.26,5.03l1.89,4.03l0.24,2.82l1.7,0.19l1.49,-2.19l4.08,-2.72l-2.59,-6.87zm-149.03,-70.15l-0.49,3.38l3.07,-2.65l-0.44,-1.45l-2.14,0.72zm19.8,-38.97l1.31,1.67l0.97,0.01l0.15,-0.64l-1.62,-1.71l-0.81,0.67zm-11.66,-6.51l0.53,-1.99l-0.37,-0.16l-1.23,-0.05l-0.45,-0.39l-1.12,0l-2.19,2.14l-1.01,2.33l-0.08,3.08l0.94,0.03l3.54,-4.12l1.44,-0.87zm2.09,18.76l-1.33,-4.25l-1.95,-2.02l-0.13,-1.57l-5.65,-2.6l0.1,6.13l-0.62,3.72l0.34,8.25l-1.54,5.95l-3.54,7.52l0.63,1.28l3.49,2.35l4.24,-3.91l3.07,-1.42l0.18,-1.54l0.57,0.17l1.12,-1.98l1.04,-0.56l0.21,-2.26l0.65,-0.05l1.67,-5.09l-0.23,-4.28l-2.32,-3.84zm0.99,-19.18l2.06,0.93l0.21,-1.46l-1.04,-0.2l-1.23,0.73zm-2.55,1.23l-2.73,3.42l2.32,0.06l2.92,-1.63l1.72,-1.88l-1.74,-1.06l-2.49,1.09z"/>
  <path fill="#457b9d" id="BD-C" d="m236.80233,364.18628l2.08,1.1l-0.05,1.33l-1.02,0.24l0.79,0.85l-1.71,0.08l-2.46,0.99l0.3,-1.21l1.46,-2.28l0,0l0.61,-1.1zm64.18,-129.8l1.29,0.25l2.15,-1.46l-1.62,-2.77l-0.97,0.21l-0.83,-0.64l-0.17,-1.35l2.07,0.07l0.3,-0.84l-1.34,-4.78l-1.42,-0.08l0.81,1.34l-1.63,-0.62l-1.64,2.25l-0.17,-1.51l1.02,-0.53l-2.49,-0.68l-1.03,0.78l-0.63,-0.32l2,-2.43l0.77,1.43l0.68,-0.63l2.49,-2.98l1.88,-4.58l-3.36,-1.78l0.64,-0.91l-0.3,-1.24l-2.15,-0.86l-0.24,-1.48l1.78,0.9l0,-0.86l0.89,0.02l0.19,-1.69l1.42,-0.03l0.82,-0.88l-1.02,-1.5l1.79,-0.31l0.06,-1.57l-1.85,-0.81l0.84,-0.99l-0.46,-1.61l-1.54,1.55l-2.46,-1.57l-1.7,0.86l-0.35,-0.74l-1.62,-0.02l1.02,-0.77l-0.4,-1.36l0.69,0.36l0.38,-0.74l-0.69,0.05l0.03,-0.73l-1.2,-0.15l-0.18,-0.59l0.92,-0.62l1.38,0.29l-0.12,-0.93l1.3,-0.93l-1.39,-0.84l1.41,-2.26l-0.17,-1.88l-1.54,-0.91l-1.01,1.4l0.29,0.81l-1.33,1.04l1.25,1.51l-1.49,0.22l-1.51,-2.36l0.59,-1.99l0.83,-0.65l-0.4,-0.8l-0.98,-0.04l-1.15,-3.82l-2.12,-1.64l-3.46,-0.54l-1.25,2.26l-0.9,-0.21l-0.44,-1.08l-1.3,0.4l-1.08,-2.19l-3.36,-0.08l-0.11,-2.55l-0.63,0.05l1.95,-0.87l0.37,-1.25l-1.05,-1.43l-1.57,-0.39l0.34,-3l-1.25,-1.68l0.52,-0.86l2.35,-0.99l-2.93,-0.86l-0.2,-3.38l1.38,-0.33l1.18,1.06l1.5,-0.48l-0.26,-1.86l-1.96,-1.81l0.6,-1.13l-0.25,-2.88l1.64,-0.72l-0.52,-1.45l-3.62,0.85l-4.14,-0.38l-3.01,0.87l-3.16,-1.04l-0.88,-0.6l-2.35,-1.26l-1.47,0.73l-0.49,1.09l-1.69,0.78l-0.67,0.44l-1.81,-1.25l-1.45,1.16l-1.57,-1.13l-1.37,-0.04l-0.75,-1.95l-1.56,0.37l0.05,0.89l-2.14,0.1l-0.91,-0.62l-3.13,0.79l-6.19,-0.44l-0.09,0.54l-5.26,1.81l-0.68,0.8l-3.55,-1.6l-3.27,-0.44l-3.56,-3.01l-2.2,0.4l-7.18,-1.77l-1.2,0.35l-5.03,-2.12l-5.59,-0.3l-5.19,-3.71l-2.38,-0.42l-2.44,-1.59l-2.09,0.01l-1.38,-2.13l-1.67,0.76l-0.45,-0.86l-1.11,0.35l-2.39,-0.83l-2.79,2.23l-4.42,-0.89l1.23,-1.5l-1.12,-0.97l0.14,-1.5l-1.35,-2.22l-0.07,-3.06l0.77,-2.9l-5.36,-1.65l0.06,0.14l0.35,1.3l0.9,0.59l-0.28,2.15l-1.63,0.89l-1.11,-0.04l-0.25,0.11l-2.44,2.46l2.97,7.28l-0.63,2.51l0,0.32l0.59,1.46l-0.96,1.23l-0.21,0.08l-3.83,0.37l-2.45,4.47l-0.05,1.63l-2.11,2.88l0.15,3.1l-0.06,0.27l-1.14,2.06l0.66,1.05l0.33,0.25l0.33,-0.16l0.1,0.17l0.23,2.51l-0.71,0.98l1.08,5.15l0.2,0.59l1.35,2.7l-0.03,1.08l-0.47,2.36l1.13,1.75l-0.17,0.14l-0.45,0.01l-0.6,0.37l-1.09,0.74l0.04,0.58l2.09,5.53l2.03,2.06l2.5,1.3l1.06,-0.13l0.26,0.58l-1.48,0.2l-0.84,1.11l-0.15,0.77l1.29,1l0.28,0.12l0.6,-1.11l1.48,1.21l1.2,-1.05l0.95,0.88l0.1,2.13l0.62,0.42l0.23,0.35l-0.37,0.98l-0.99,0.61l1.65,1.82l0,1.38l0.49,0.41l-0.01,1.17l-1.18,0.79l0.04,4.1l-1.94,0.89l-0.03,0.64l1.4,4.44l-0.24,0.43l-0.66,0.39l-0.24,0.3l0,0.91l-0.13,0.29l-2.18,1.04l-0.07,1.67l-0.21,0.17l-0.41,-0.2l-0.55,0.32l0.4,0.59l0.81,0.25l0.36,0.14l0.45,1.26l-0.91,1.87l0.15,0.28l0.67,-0.27l0.1,0.19l-1.46,1.13l-0.06,1.18l-1.61,0.97l0.64,1l0.77,3.12l0.55,0.23l1.22,-0.28l0.71,3.46l-1.62,2.72l1.9,1.86l0.2,0.48l0.04,1.76l1.15,1.91l0.15,0.59l-0.56,4l0.05,0.78l1.43,6.54l-0.14,0.16l-1.18,0.27l-0.34,0.45l0.41,0.7l0.3,0.23l1.58,-0.23l0.41,1.29l1.14,0.7l-0.31,2.89l0.58,3.51l-0.85,1.65l-3.98,3.25l-0.38,0.04l-0.96,-0.22l-0.61,0.11l-4.28,3.31l-0.8,6.52l0.16,0.3l0.73,-0.01l0.41,0.61l0.14,1.97l0.14,0.35l-0.68,2.96l0.15,0.16l0.68,-1.34l2.74,4.94l-0.98,0.54l-1.15,0.29l-1.06,1.5l-1.21,-0.07l-1.28,0.46l-0.98,0.08l-4.14,-0.24l-0.34,0.32l-2.64,-0.19l-1.25,0.79l-0.51,0.05l-1.28,-0.11l-0.65,-0.88l-2.98,-0.16l-1.34,-0.77l-11.87,-9.23l-1.07,0.28l0.08,1.42l-0.35,0.35l-0.39,-0.62l-0.23,1.47l0.66,1.38l-2.46,4.32l-1.14,3.4l0.44,0.95l-0.48,0.82l-1.16,0.16l-0.16,0.54l1.04,0.27l-0.6,1.83l-1.83,1.42l1.3,0.66l1.3,2.81l2.59,3.22l2.31,0.56l3.09,-1.56l2.72,2.48l0.29,1.56l4.34,1.21l0.2,1.04l-1.81,1.93l1.59,0.6l1.22,1.41l0.71,3.02l2.58,1.2l-3.11,1.21l-1.29,2.44l3.85,-0.89l4.18,2.02l2.81,2.25l-0.06,4.88l1.24,3.27l-0.34,0.43l-2,-0.51l0.64,4.71l1.08,2.93l1.92,1.57l0.88,2.37l-1.96,3.83l5.7,-0.46l-0.39,1.92l0.8,1.74l-0.76,2.42l1.44,1.9l3.76,-2.42l2.22,0l0.64,0.6l-0.47,0.69l-3.24,0.69l-0.06,0.74l1.66,1.88l-0.17,1.33l-2.77,0.53l-1.1,1.02l-1.31,-1.15l-0.22,-1.51l-0.87,1.01l0.19,1.25l1.94,2.22l2.72,1.17l-0.27,0.88l1.25,0.92l-0.82,1.87l2.01,0.87l0.85,3.59l3.26,1.4l-0.33,1.56l1.84,-0.06l0.65,0.65l-1.07,2.7l2.8,0.67l1.23,1.95l1.97,1.39l-0.09,0.61l-1.42,-0.3l0.43,1.17l-0.42,0.28l-1.21,-0.52l-1.27,0.37l0.01,1l-0.9,-0.32l1.07,1.78l1.75,1.37l2.3,-0.58l1.59,1.04l2.14,0.12l1.22,-0.86l1.07,2.73l1.06,-0.68l-0.91,-3.77l2.34,1.1l5.04,-1.55l1.63,-6.28l2.26,-0.52l0.14,-3.46l1.06,-0.06l2.42,-3.51l2.67,-0.15l0.79,-3.22l0.73,-0.68l-0.74,-0.59l1.63,-0.48l0.97,-1.42l2.81,1.12l2.17,-1.46l1.83,2.34l-0.41,3.56l0.51,0.48l-0.9,1.87l0.88,2.21l0.68,-1.02l1.6,0.01l-0.56,0.84l0.37,0.65l1.63,-1.56l1.04,0.63l3.65,-0.29l0.23,-2.59l-1.55,-3.05l0.87,-2.38l4.82,-0.2l4.84,1.59l0.21,0.68l-1.17,1.09l-2.49,0.55l3.72,0.75l5.39,-1.66l1.51,-1.66l0.29,-1.69l2.33,-3.64l2.52,-1.15l-0.01,0.53l1.16,0.94l2.23,-7.67l-0.42,-0.91l0.57,-0.02l1.14,-2.8l0.14,-0.17l0.66,-1.16l-3.68,-8.43l0.52,-3.17l-2.65,-1.86l-1.16,-3.36l5.05,-10.41l2.67,-0.35l2.16,-1.29l3.79,1.47l2.48,-1.57l-2.45,-5.46l-3.66,-1.65l0.81,-1.4l1.29,-0.27l-1.07,-2.46l-2.59,-0.46l1.53,-5.51l3.32,-0.62l2.98,1.74l2.02,-0.53l0.83,-2.85l-1.81,-2.87l-0.15,-1.68l0.6,-1.65l3.46,-4.13l-0.06,-2.77l-1.06,-1.87l0.62,-1.36l1.95,-0.89l5.02,0.3l2.38,-1.23l2.05,1.94l1.07,0.06l2.01,-1.68l0.75,-3.27l2.42,-1.97l-0.22,-2.56l2.38,-1.95l-0.4,-4.1l1.53,-2.86l5.64,-3.81l1.02,-1.93l-0.89,-2.07l-4.27,-2.39l-1.52,-2.6l3.11,-1.95l1.97,-2.88l5.06,0.31l0.18,-0.45l-1.42,-0.98l0.4,-2.07l5.44,-0.11l3.39,-2.45l1.89,-2.66l-0.7,-0.34l-2.82,1.02l1.22,-3.73l5.9,0.28l0.16,-1.5l-2.13,-3.1l0.34,-0.92z"/>
  <path fill="#457b9d" id="BD-D" d="m131.66233,421.87628l0.83,0.87l1.02,0.07l-0.86,0.57l0.83,3l0.36,5.99l1.2,0.92l-0.18,3.78l-1.2,1.65l3.83,5.1l0.1,0.62l1.56,3.44l0.16,0.17l-1.72,3.41l3.85,12.85l0.68,0.64l0.96,1.27l-0.05,2.48l-2.27,4.29l2.14,2.32l4.79,-13.24l-4.09,-7.7l2.97,-3.38l0.03,-1.62l0.12,-0.18l0.43,1.33l0.7,-0.26l-0.36,-3.55l2.29,-2.94l1.82,-4.06l-0.94,-4.51l-2.71,-5.07l-0.47,-5.99l-1.56,-5.44l-3.3,-4.29l-0.33,-0.43l-0.65,-2.48l-2.14,-1.61l-1.19,-0.21l-0.78,0.24l-1.52,-0.22l0.15,2.09l-5.29,4.69l2.21,2.69l-0.05,1.12l-1.37,1.58zm12.27,65.02l-0.33,-7.73l0.54,-0.6l2.17,2.61l-2.38,5.72zm-31.38,10.72l-1.55,-0.91l-0.88,-3.26l1.4,-1.41l4.92,1.04l1.4,-1.67l0.71,1.66l1.04,1.88l-1.09,0.45l1.15,0.17l0.37,3.78l-2.66,-0.73l-3.83,1.08l-0.98,-2.08zm11.34,-11.37l2.99,-1.61l-0.61,-2.65l-1.61,-3.5l-2.87,-3.53l-0.1,-0.27l-2.7,-5.94l1.66,-2.7l-3.13,0.44l-0.97,-1.25l-1.58,-0.26l-0.82,0.28l2.14,1.9l0.44,1.77l-3.21,4.9l2.17,1.12l0.86,1.45l-0.68,1.13l-3.15,1.94l2.31,1.04l2.44,2.55l1.69,-0.43l1.4,0.88l0.03,1.73l-1.58,1.98l0.64,3.14l0.85,0.21l-1.12,0.67l1.53,1.69l1.33,-4.64l1.65,-2.04zm-17.18,13.29l0.19,1.77l-1.13,1.36l-2.59,-0.03l-3.54,-4.9l-2.46,-1.74l1.52,-6.7l-0.66,-2.28l-1.88,-1.95l-0.06,-1.53l0.23,-0.82l1.29,-0.35l0.93,0.32l0.16,3.27l2.24,3.02l-0.74,3.73l0.87,2.41l4.38,2.64l0.04,0.9l1.21,0.88zm11.65,5.53l2.34,1.1l-1.53,1.84l-1.91,-0.15l0.51,0.62l-0.41,0.52l-4.42,0.68l-0.46,-1.51l1.54,-3.31l0.49,0.16l1.61,0.83l1.06,-0.32l1.18,-0.46zm-12.16,-26.24l2.85,-3.76l-0.57,-2.48l0.94,-0.11l0.97,0.03l1.03,1.95l4.31,1.67l-3.61,2.35l0.57,2.52l1.05,0.86l1.89,-0.09l0.52,1.5l0.95,0.58l2.7,0.26l-1.48,2.16l-0.15,0.2l0.58,2.68l-2.4,3.38l-5.11,-1.09l1.55,-8.52l-2.71,-0.76l-0.46,-0.03l-1.56,0.14l-1.72,-1.33l-0.14,-2.11zm18.36,-22.36l0.34,2.43l-0.88,2.63l1.92,-0.56l-0.07,1.79l2.32,1.96l0.68,-2.18l2.19,-0.92l0,-0.42l0.11,-2.39l2.96,-1.28l2.13,2.33l1.03,-1.57l-1.3,-3.34l-0.14,-2.29l0.09,-2.77l-3.58,1.55l-0.18,0.27l-0.88,-1.44l0.29,-1.13l-2.36,-1.14l-1.04,1l-1.01,-1.21l-1.78,1.4l0.97,0.26l0.2,0.69l-0.8,0.79l-0.34,1.93l-1.29,0.41l0.12,1.44l-0.81,0.84l1.11,0.92zm15.99,9.35l-1.84,-0.58l-1.19,-1.62l-0.22,-3.07l0.75,-0.29l1.09,0.99l0.73,2.37l0.68,2.2zm-22.75,33.07l1.9,0.78l0.47,2.02l-0.78,2.53l-1.2,0.28l-0.37,0.06l-1.57,0.96l-2.19,-1.22l-0.4,-4.21l4.14,-1.2zm17.43,-31.33l4.05,-1.87l1.77,1.27l-3.84,2.92l-2.15,-1.6l0.17,-0.72zm26.14,18.18l1.42,4.12l-0.23,1.06l-1.66,0.58l-2.09,-0.43l-0.24,-0.66l-2.6,0.53l-0.24,-3.4l-1.01,-1.44l1.95,-1.98l1.35,-3.79l-0.62,-4.89l0.96,-1.38l0.4,0.43l0.28,1.51l0.69,0.81l0.96,0.18l-0.98,1.82l1.51,2.94l-1.48,2.67l1.63,1.32zm12.58,-7.18l1.29,5.08l-1.01,2.7l-1.56,1.07l-0.69,-0.81l-0.52,0.31l0.07,2.55l-4.42,0.95l-1.15,1.13l-0.97,-0.48l0.42,-1.59l-2.19,-0.32l-1.23,-3.49l-1.81,-1.52l1.47,-1.49l-0.54,-2.09l-1.02,-1.91l1.28,-0.88l-0.47,-1.22l-0.72,-0.17l-0.8,-0.39l-0.07,-2.04l-0.84,-0.24l0.61,-2.53l-2.47,-1.74l3,-2.14l0.24,-5.59l3.25,-0.51l0.72,0.06l0.86,1.48l0.91,3.11l4.65,3.61l0.4,0.17l1.1,-0.02l1.76,2.47l0.45,6.48zm-21.62,8.64l0.16,-1.11l1.18,-0.85l1.38,2.66l-1.02,1.23l-1.7,-1.93zm26.14,-59.94l-2.04,-0.6l-0.6,-1.28l0.67,-1.6l2.49,-0.05l4.37,1.17l-0.04,-1.33l-4.05,-0.26l2.89,-3.67l1.05,-4.22l-0.95,-1.05l-3.32,-0.48l0.83,-3.94l-3.23,-1.76l0.83,-1.72l1.36,1.52l0.88,-0.41l1.29,-1.16l-0.77,-0.9l-2.34,-0.8l-2.85,0.54l-0.91,-0.86l4.07,-2.93l2.19,0.49l0.28,-2.98l-1.89,0.13l0.12,-1.4l-0.89,-0.9l3.39,-0.6l-0.48,-1.57l-1.83,-0.22l1.91,-2.22l-1.06,-2.73l-1.22,0.86l-2.14,-0.12l-1.59,-1.04l-2.3,0.58l-1.75,-1.37l-1.06,-1.78l0.9,0.32l-0.01,-0.99l1.27,-0.37l0.99,0.35l0.43,-0.28l-0.43,-1.17l1.42,0.3l0.09,-0.61l-1.97,-1.39l-1.23,-1.95l-2.8,-0.67l1.07,-2.7l-0.65,-0.65l-1.84,0.06l0.33,-1.56l-3.26,-1.4l-0.85,-3.59l-2.01,-0.87l0.82,-1.87l-1.25,-0.92l0.27,-0.87l-2.72,-1.17l-1.93,-2.22l-0.19,-1.25l0.88,-1.01l0.22,1.52l1.31,1.15l1.1,-1.02l2.77,-0.53l0.17,-1.33l-1.66,-1.88l0.06,-0.74l3.24,-0.69l0.47,-0.69l-0.63,-0.6l-2.22,0l-3.76,2.42l-1.44,-1.89l0.76,-2.41l-0.8,-1.74l0.39,-1.92l-5.7,0.46l1.96,-3.83l-0.88,-2.37l-1.92,-1.57l-1.08,-2.93l-0.64,-4.71l2,0.51l0.34,-0.43l-1.24,-3.27l0.06,-4.88l-2.81,-2.25l-4.18,-2.02l-3.84,0.9l1.3,-2.44l3.11,-1.21l-2.58,-1.2l-0.71,-3.02l-1.22,-1.4l-1.59,-0.6l1.81,-1.93l-0.2,-1.04l-4.34,-1.21l-0.29,-1.56l-2.72,-2.48l-3.09,1.56l-2.31,-0.56l-2.59,-3.22l-1.39,-2.82l-1.3,-0.66l1.83,-1.42l0.6,-1.83l-1.04,-0.27l0.16,-0.54l1.16,-0.16l0.48,-0.82l-0.43,-0.95l1.14,-3.4l2.46,-4.32l-0.66,-1.37l0.23,-1.47l0.39,0.62l0.36,-0.35l-0.08,-1.42l-3.76,-2.7l-0.45,-0.46l-1.07,-1.8l-5.18,-2.11l-0.77,-0.19l-0.67,1.21l-0.79,2.58l-1.96,1.28l-0.93,-0.39l-1.35,-3.99l-0.28,-0.01l-0.92,1.61l-1.02,0.47l-3.93,-1.37l-2.31,0.02l-0.26,-1.19l-3.01,-1.05l-1.85,-5.96l-0.3,-0.44l-2.12,-6.49l-0.63,-0.96l-5.17,-0.55l-0.81,-0.2l-0.78,-0.41l-1.65,0.82l0.18,-1.08l-0.1,-0.05l-0.92,0.28l-0.22,0.18l0.19,1.13l-0.12,0.14l-3.04,1.22l-0.22,-0.01l0.66,-1.33l-0.16,-0.17l-1.28,0.51l-0.41,-0.07l-7.11,-2.46l-2.94,-3.01l-2.15,-4.1l-0.08,1.26l-1.38,-0.29l-0.58,2.4l-1.08,1.09l1,4.81l-1.45,0.56l0.49,1.89l2.4,-0.1l-0.3,3.07l1.43,0.65l-1.34,0.71l1.14,0.61l0.35,1.22l-0.13,2.13l-0.99,1.96l2.96,-1.39l1.15,2.39l-2.75,0.01l-0.62,0.66l0.69,4.31l-0.87,0.63l-0.13,1.71l-2.76,0.01l0.16,1.43l-1.1,-0.08l-0.63,1.09l-1.73,0.52l-0.78,1.62l-2.74,0.64l-1.07,-1.4l-1.33,1.14l-1.18,-0.64l-1.43,1.12l-0.04,0.55l1.06,0.37l0.07,1.66l1.32,1.79l-1.41,0.47l0.51,1.17l-0.96,0.47l-0.15,0.83l-1.97,0.39l1.83,1.91l-1.37,5.15l0.9,4.79l-1.14,2.61l2.88,0.56l-0.19,2.21l-0.89,1.43l1.7,-0.28l0.3,0.55l4,-1.01l-0.58,1.5l0.91,0.92l1.01,3.22l2.35,1.39l1.04,2.18l3,0.93l1.46,2.8l1.13,0.27l0.44,-0.81l1.02,0.64l-0.02,-1.22l0.86,-0.6l1.79,0.28l0.11,1.8l-1.05,1.25l0.24,2.39l-1.22,0.56l-1.19,-0.7l-0.74,2.42l0.25,1.33l-0.67,1.66l0.88,2.82l-2.69,1.57l1.17,3.7l-0.57,0.32l-1.22,-1.03l-0.39,1.8l-1.23,-0.97l-1.15,1.23l2.47,2.72l-0.31,1.72l2.51,1.55l1.98,-0.21l1.45,2.13l1.22,0.29l1.63,-0.1l-0.57,-2.72l0.09,-0.65l0.83,-0.12l1.22,0.64l0.64,0.69l1.41,1.35l5.69,-0.55l0.53,2.2l0.9,-0.44l2.16,1.02l2.61,-1.98l1.41,0.98l-0.67,0.55l-0.53,2.6l-1.24,-1.1l-0.67,0.23l-0.7,1.43l-1.51,0.67l-0.61,3.1l-0.81,-0.09l-0.17,1.36l-1.2,0.46l-0.99,1.57l-2.61,1.09l-0.29,2.68l1.2,2.98l-0.55,3.55l-2.5,0.19l1.99,1.3l0.07,2.11l-0.68,1.38l3.18,0.47l0.14,2.4l1.58,0.82l-0.98,1.49l0.56,2.68l2.18,0.96l1.26,-0.96l2.02,3.53l-0.85,4.88l-1.83,0.78l-1.71,2.14l-0.11,2.81l3.73,4.72l-1.13,3.12l-1.44,1.44l0.43,2.67l1.68,-0.37l0.7,0.62l-1.98,2.56l0.06,2.94l1.99,1.25l1.66,6l1.85,1.96l-0.78,2.38l0.99,1.81l-2.57,2.13l2.12,2.14l-1.2,1.25l0.64,0.99l-0.52,3.86l1.52,0.27l2.28,2.81l-2.47,0.03l-0.27,1.06l2.19,1.42l-0.32,1.54l1.75,-0.33l0.82,3.13l2.68,2.82l0.29,0.53l-0.94,2.21l0.44,1.87l0.42,0.39l1.77,-1.26l0.65,0.64l-0.13,1.03l-4.92,4.92l0.68,3.15l2.82,0.98l-1.63,0.06l2.11,3.66l0.03,0.52l0.63,7.41l-0.57,-0.76l-0.7,2.07l-0.36,2.13l1.91,3.36l0.3,5.07l-0.36,0.84l5.12,1.94l1.39,-0.94l0.95,-3.5l0.64,-3.76l1.5,-3.59l-5.3,-0.48l-1.34,-3.25l0.6,-2.32l2.39,-2.21l-1.56,-4.53l0.67,-1.52l1.82,-0.82l-1.84,2.41l0.88,1.06l2.32,0.31l1.69,2.23l3.77,-5.53l-0.81,-1.7l-1.98,-1.34l-0.89,-2.91l-0.25,-1.17l0.88,-0.52l-0.54,-1.42l3.22,-1.44l-1.8,-3.89l1.82,-1.69l-0.53,-1.41l0.49,-1.62l0.51,-2.43l1.33,-1.2l-0.99,1.59l-0.36,4.36l5.39,0.39l0.22,-1.27l-1.06,-2.08l1.59,1.48l-0.37,2.22l1.59,1.8l0.24,-1.48l1.18,-0.78l0.24,-1.09l1.04,-1.45l-1.53,-0.61l1.03,-0.87l0.19,-0.21l0.84,-0.68l1.23,0.13l0.23,0.63l0.83,-0.72l2.63,1.12l1.38,-2.12l-0.75,-1.03l-1.22,-1.54l0.99,-1.57l-1.98,-1.45l0.44,-1.15l-1.67,-0.28l-0.03,-2.32l-1.72,0.2l0.34,-1.93l-1.01,-2.74l1.17,-3.89l-1.41,0.45l-0.91,-1.26l-8.17,1.09l0.16,-1.48l2.47,-0.84l-1.6,-1.24l5.5,-2.77l0.05,1.38l2.22,1.02l-0.86,1.45l0.2,0.89l0.93,-0.6l2.94,0.88l0.61,-0.93l2.36,-0.07l0,-1.71l-1.09,-2.47l0,-0.28l1.43,-2.83l-3.02,-3.72l-0.62,-2.42l1.85,-1.09l0.63,-2.07l0.34,-0.44l0.27,0.37l0.76,2.04l-1.02,2.93l4.18,-3.45l-0.01,-2.22l1.63,0.26l1.21,-0.67l3.2,2.23l0.55,1.26l0.31,0.45l0.31,0.28l3.9,5.93l2.09,8.07l1.69,-3.72l2.07,-0.94l-0.4,-1.68l0.52,-2.08l1.89,0.63l0.32,0.06l2.17,-2.31l0.83,0.36l-1.17,1.46l0.32,0.44l2.76,-0.85l3.76,2.19l1.49,1.21l1.53,0.63l0.13,1.24l1.37,1.52l3.64,0.11l3.71,4.87l0.09,1.23l3.04,-1.83l2.19,-0.45l0.81,-1.19l-1.07,-1.17l-2.3,0.27zm-46.29,-15.2l-1.74,4.36l-0.71,-0.98l-0.59,-2.1l1.74,-0.77l0.59,-2.11l0.71,1.6zm22.8,80.46l3.7,2.95l-0.16,2.09l-2.78,1.74l-1.64,0.04l-0.54,-0.58l-0.92,0.28l-2.49,-0.78l0.83,-2.18l-0.37,-1.54l-5.58,-5.3l0.22,-0.56l-0.93,-1.61l2.55,-5.99l1.24,-1.06l1.8,-0.14l1.45,0.29l2.27,3.39l-1.92,2.77l0.05,2.06l3.22,4.13zm20.17,-62.01l-3.75,-4.62l-3.53,-0.3l-1.94,-2.74l-2.44,-1.89l-3.55,-2.08l-2.76,1.03l-0.6,-0.96l-1.37,0.97l-1.87,-0.26l-0.32,1.07l0.25,2.17l-2.17,1.18l-2.33,4.24l2.64,5.2l1.13,5.68l-0.58,2.96l-3.34,4.79l0.52,2.27l-0.86,2.71l-1.22,1.09l-1.95,0.45l-0.21,0.76l4.95,7.55l-1,4.09l-2.06,3.45l-2.38,9.2l1.86,1.96l0.73,0l0.68,-1.03l0.49,0.22l3.54,0.15l0.27,0.34l2.68,4.27l1.08,-0.49l0.76,-1.44l0.88,-3.38l-0.93,-3.18l2.13,-4.56l-1.87,-0.85l-0.65,-1.06l0.86,-1.52l0.52,-0.02l1.7,-0.83l0.22,-2.95l0.12,-2.44l-1.76,-4.78l-0.24,-2.21l0.49,0.26l1.38,-0.73l0.68,0.98l-0.42,0.92l-1.53,0.11l0.23,1.31l1.63,3.67l2.78,-0.52l1.41,0.52l1.19,2.02l0.36,2.01l2.46,2.15l0.53,-0.27l1.32,0.93l2.28,0.2l2.94,-3.31l0.75,-2.66l-0.75,-6.66l-1.43,-1.98l-1.92,-0.98l-0.49,-1.9l1.31,-5.52l3.72,-7.09l0.03,-1.68l-2.08,-3.22l0.8,-2.77zm-43.43,13.05l1.13,-1.75l-0.21,-2.05l3.24,3.38l2,4.16l-1.6,1.93l-0.97,0.25l-2.85,1.45l-0.4,-0.81l1.58,-3.33l-0.63,-1.47l-1.29,-1.76zm-10.39,9.53l1.04,2.6l-3.88,3.91l-0.75,1.37l0.13,2.21l-1.02,1.07l-3.46,0.46l-0.93,-2.76l1.83,-0.67l-1.26,-1.22l3.01,-1.51l-1.77,-3.89l1.88,-1.77l5.18,0.2zm-2.31,9.85l0.22,0.43l-1.51,2.27l3.33,-0.84l0.82,1l-0.03,1.31l-0.26,0.32l-1.49,1.06l3.3,6.72l2.19,2.27l-0.6,-5.75l4.1,-6.05l-3.43,-2.36l-0.03,-1.94l-1.26,0.8l-0.82,-0.47l0.74,-2.32l-0.18,-2.87l-0.67,-0.33l-3.33,3.23l-1.09,3.52zm20.21,8.71l-1.42,-1.91l3.51,-2.68l0.42,0.62l-0.45,1.43l-2.06,2.54zm8.9,27.19l1.89,3.85l-1.7,0.75l-1.94,-0.13l-1.34,-1.02l-1.99,-4.49l0.46,-0.5l0.96,0.73l-0.44,-1.97l0.53,-0.59l-1.81,-3.05l0.98,-2.82l5.94,4.98l-0.14,2.38l-1.3,1.05l-0.1,0.83zm-7.06,-19.2l-0.14,1.63l0.05,0.41l-0.62,2.12l-4.92,-0.14l0.88,-1.53l-0.15,-1.48l-2.1,-1.01l-1.47,-2.02l1.61,-2.08l-0.68,-6.13l0.89,-0.93l2.19,1.57l0.61,0.15l3.13,7.79l0.14,0.28l0.58,1.37zm-15.14,11.79l-1.27,1.65l-0.13,2.93l-2.09,-4.25l-0.33,-2.18l5.22,-3.27l-1.4,5.12zm9.93,0.31l-0.24,-1.48l-2.68,-0.26l-0.33,-0.41l2.39,0.05l0.73,-0.58l0.34,-3.26l1.19,-1.34l-2.28,-0.49l-0.18,-0.86l1.11,-1.83l-2.59,-1.43l-1.15,-2.06l0.66,-1.6l0.81,-0.57l-0.7,-5.78l2.13,-2.57l0.1,-0.14l3.31,-1.45l-2.5,-3.1l0.39,-2.32l-2.42,-1.98l-2.37,0.9l-0.34,2.76l-2.29,0.98l0.7,3.69l-3.62,5.51l1.02,6.7l1.58,3.28l0.23,4.58l-3.23,7.43l0.68,0.9l0.47,4.88l1.38,1.65l2.19,1.16l1.94,-0.72l0.6,-1.48l1.77,-1.31l0.22,-1.38l0.7,0.45l1.93,-2.77l-0.15,-1.77l-1.5,-1.98z"/>
  <path fill="#2D6862" id="BD-E" d="m154.26233,165.58628l1.08,5.15l0,0l0.2,0.59l0,0l1.35,2.7l0,0l-0.03,1.08l0,0l-0.47,2.36l1.13,1.75l0,0l-0.17,0.14l0,0l-0.45,0.01l0,0l-0.6,0.37l0,0l-1.09,0.74l0,0l0.04,0.58l0,0l2.09,5.53l2.03,2.06l2.5,1.3l1.06,-0.13l0,0l0.26,0.58l0,0l-1.48,0.2l-0.84,1.11l0,0l-0.15,0.77l0,0l1.29,1l0,0l0.28,0.12l0,0l0.6,-1.11l1.48,1.21l1.2,-1.05l0.95,0.88l0.1,2.13l0.62,0.42l0,0l0.23,0.35l0,0l-0.37,0.98l0,0l-0.99,0.61l0,0l1.65,1.82l0,1.38l0,0l0.49,0.41l0,0l-0.01,1.17l-1.18,0.79l0.04,4.1l-1.94,0.89l0,0l-0.03,0.64l0,0l1.4,4.44l0,0l-0.24,0.43l0,0l-0.66,0.39l0,0l-0.24,0.3l0,0l0,0.91l0,0l-0.13,0.29l0,0l-2.18,1.04l-0.07,1.67l0,0l-0.21,0.17l0,0l-0.41,-0.2l0,0l-0.55,0.32l0.4,0.59l0,0l0.81,0.25l0,0l0.36,0.14l0,0l0.45,1.26l-0.91,1.87l0,0l0.15,0.28l0,0l0.67,-0.27l0,0l0.1,0.19l0,0l-1.46,1.13l-0.06,1.18l-1.61,0.97l0,0l0.64,1l0,0l0.77,3.12l0,0l0.55,0.23l0,0l1.22,-0.28l0.71,3.46l-1.62,2.72l1.9,1.86l0,0l0.2,0.48l0,0l0.04,1.76l1.15,1.91l0,0l0.15,0.59l0,0l-0.56,4l0,0l0.05,0.78l0,0l1.43,6.54l0,0l-0.14,0.16l0,0l-1.18,0.27l0,0l-0.34,0.45l0,0l0.41,0.7l0,0l0.3,0.23l0,0l1.58,-0.23l0.41,1.29l1.14,0.7l-0.31,2.89l0.58,3.51l-0.85,1.65l-3.98,3.25l0,0l-0.38,0.04l0,0l-0.96,-0.22l0,0l-0.61,0.11l0,0l-4.28,3.31l-0.8,6.52l0,0l0.16,0.3l0,0l0.73,-0.01l0,0l0.41,0.61l0,0l0.14,1.97l0,0l0.14,0.35l0,0l-0.68,2.96l0,0l0.15,0.16l0,0l0.68,-1.34l2.74,4.94l0,0l-0.98,0.54l0,0l-1.15,0.29l-1.06,1.5l0,0l-1.21,-0.07l0,0l-1.28,0.46l0,0l-0.98,0.08l0,0l-4.14,-0.24l0,0l-0.34,0.32l0,0l-2.64,-0.19l-1.25,0.79l0,0l-0.51,0.05l0,0l-1.28,-0.11l0,0l-0.65,-0.88l0,0l-2.98,-0.16l0,0l-1.34,-0.77l0,0l-11.87,-9.23l0,0l-1.07,0.28l0,0l-3.76,-2.7l0,0l-0.45,-0.46l0,0l-1.07,-1.8l-5.18,-2.11l0,0l-0.77,-0.19l-0.67,1.21l0,0l-0.79,2.58l-1.96,1.28l0,0l-0.93,-0.39l0,0l-1.35,-3.99l0,0l-0.28,-0.01l0,0l-0.92,1.61l-1.02,0.47l-3.93,-1.37l-2.31,0.02l0,0l-0.26,-1.19l0,0l-3.01001,-1.05l-1.85,-5.96l0,0l-0.3,-0.44l0,0l-2.12,-6.49l0,0l-0.63,-0.96l0,0l-5.17,-0.55l0,0l-0.81,-0.2l0,0l-0.78,-0.41l-1.65,0.82l0.18,-1.08l0,0l-0.1,-0.05l0,0l-0.92,0.28l0,0l-0.22,0.18l0,0l0.19,1.13l0,0l-0.12,0.14l0,0l-3.04,1.22l0,0l-0.22,-0.01l0,0l0.66,-1.33l0,0l-0.16,-0.17l0,0l-1.28,0.51l0,0l-0.41,-0.07l0,0l-7.11,-2.46l-2.94,-3.01l-2.15,-4.07l0.44,-5.94l-1.39,-3l-1.59,-1.23l-3.03,-0.64l-4.1,0.93l-0.39,-0.9l-1.66,-0.18l-0.36,0.59l-1.41,-0.45l-0.26,-1.09l-1.55,-0.16l-1.38,3.17l-2.46,-4.88l-2.02,-0.05l-5.51,-3.31l-2.01,-0.51l-3.28,1.01l-2.35,-0.08l-3.16,-1.05l-5.42,-5.68l-7.05,-2.24l-2.27,-3.05l-2.62,-1.57l-4.12999,-4.43l-5.4,-9.07l-3.38,-3.09l5.08,-5.61l0.85,-2.03l-0.61,-0.88l0.7,-0.98l-0.4,-1.03l0.97,-0.14l0.83,-1.21l1.51,0.32l0.14,-2.57l1.40999,-1.76l1.18,-1.04l1.18,-1.9l1.56,-0.6l-0.19,-1.22l0.03,-1.18l-0.71,-0.73l1.46,-0.37l-2.81,-2.79l-0.08,-1.93l1.41,0.28l2.38,-2.11l4.49,-0.57l3.34,4.23l1.3,2.32l0.19,0.87l1.97,0.23l0.37,1.51l1.73,-1.14l2.36,-1.09l-2.02,-1.9l0.92,-0.73l0.52,-2.18l2.03,-1.28l1.97,1.4l1.6,-0.81l-0.74,-1.66l0.37,-0.74l1.86,-0.5l-0.36,-2.01l1.01,-1.37l1.14,0.04l1.62,-3l-1.62,-1.5l1.53,-2.99l-0.94,-4.83l1.86,-1.62l-0.4,-2.34l-1.28,-1.24l0.1,-2l2.41,-0.16l0.58,-1.59l2.06,0.17l0.11,0.65l3.36,0.48l-0.1,1.06l2.21,-0.36l-0.06,1.51l0.67,0.17l1.33,-0.18l1.07,-1.5l2.4,-1.25l5,0.56l1.1,-0.97l2.54,0.05l2.17,0.93l0.27,1.27l1.57,1.08l1.96,-1.36l0.45,1.1l2.44,0.83l1.02,-0.34l1.58,-3.15l1.25,-0.51l0.79,1.06l1.17,-0.03l1.04,2.08l1.94,-0.36l1.42,0.51l0.16,0.98l0.81,0.3l0.63,-1.84l1.65,0.1l-0.14,-1.72l-0.96,-0.19l-0.08,-1.6l1.32,0.49l0.94,-0.64l-0.72,-2.24l0.35,-1.54l2.25,-1.6l0,0l3.31,3.06l7.19001,0l0.9,1.48l5.84,0.99l4.5,-0.49l0,1.48l-1.35,1.98l0.45,1.98l1.35,2.96l3.15,1.98l1.35,3.46l2.7,0.99l2.7,-1.48l2.7,0l3.15,3.95l2.25,1.48l0.9,0l0.9,-1.48l2.7,0l8.09,4.44l1.8,0l4.05,-2.47l4.51,-0.59z"/>
  <path fill="#559E84" id="BD-F" d="m154.26233,165.58628l-4.58,0.48l-4.04,2.47l-1.8,0l-8.09,-4.44l-2.7,0l-0.9,1.48l-0.9,0l-2.24,-1.48l-3.15,-3.95l-2.7,0l-2.69,1.48l-2.7,-0.98l-1.35,-3.46l-3.14,-1.97l-1.35,-2.97l-0.45,-1.97l1.35,-1.98l0,-1.48l-4.5,0.49l-5.84,-0.99l-0.9,-1.48l-7.19001,0l-3.31,-3.05l0,0l0.76,-0.8l1.87,0.44l0.37,-2.09l-2.03,-0.01l-0.59,-1.05l-0.66,0.39l-1.85,-0.59l-1.07,0.62l-0.73,-0.96l-1.07,0.78l-1.79,-3.3l-1.43,0.24l-0.24,1.11l-1.54,-1.63l-0.05,-1.01l-2.63,-1.48l0.13,-3.05l-2.64,-1.67l1.33,-0.51l0.56,-1.23l-0.78,-1.63l1.26,-1.29l-0.29,-1.67l-0.67,-1.64l-1.63,-0.17l-0.39,-3.37l-1.21,-0.19l-1.42,0.92l-1.82,-0.9l-0.01,1.34l0.94,0.95l-0.34,0.71l-2.45,0.65l-0.39,-1.67l-2.6,0.53l-0.09,1.83l-1.05,0.97l-3.17,-0.08l-0.5,-0.93l-0.93,0.28l-0.17,-1.85l-2.2,-0.04l-1.41,-1.84l-1.07,0.95l-1.87,-0.16l-2.32,-1.26l-0.98,1.14l-0.19,-2.5l-0.67,-0.95l-0.98,0.72l-1.2,-0.95l-1.29,-1.6l0.32,-2.43l-2.58,0.02l-1.32,-1.57l-1.13,-0.07l0.38,-2.44l0.72,-0.75l-0.13,-3.38l-4.65,-0.91l-0.06,-1.36l-1.1,0.07l-0.24,-0.97l-1.61,-0.38l0.33,-1.83l-1.61,-0.55l-0.13,-0.81l-3.18,-0.97l-0.64,-1.62l-4.45,-3.02l0.37,-1.75l-0.54,-1.17l-0.64,-0.39l-1.06,0.13l-0.4,0.74l-0.8,-0.34l-0.48,1.24l-1.4,-0.28l-0.97,1.25l-1.29,-1.37l-0.8,-0.01l-1.07,1.48l-0.95,-0.22l-1.21,1.33l-0.72,-0.52l-0.24,-1.56l-2.28,-0.29l0.29,-1.4l-0.85999,-0.32l-0.61,-1.3l0.66,-1.08l-0.76,-0.72l1.10999,-0.96l-1.12999,-3.31l0.47,-0.54l-1.47,-0.42l-0.15,-0.87l-0.25,-1.78l0.69,-1.25l1.66,-0.46l0.45999,-2.37l0.97,-0.86l-0.35,-1.07l2.04,-2.43l-0.26,-1.15l4.04,-1.27l-1.31,-0.91l0.48,-0.62l0.29,-0.81l-0.24,-1.06l0.76,-0.36l-0.07,-0.87l-1.73,-1.54l-0.57,-1.15l1.82,-3l-0.45,-0.26l0.4,-2.04l1.59,-0.54l0.99,-0.75l2.01,-0.96l0.88,-0.81l-0.32,-0.76l1.35,-0.71l0.41,0.54l2.06,-0.26l1.64,-1.49l0.64,0.53l1.85,-0.56l1.21,-1.34l1.81,-0.61l0.77,-2.1l-0.83,-0.48l-0.01,-3.82l3.53,-3.34l2.5,-0.24l-0.86,-1.5l0.74,-0.65l2.18,-0.04l1.86,-3.81l0.39,1.45l2.34,1.1l0.3,-1.11l1.74,-0.05l-0.28,1.29l1.78,-1.24l-0.8,-0.39l-0.02,-0.93l0.43,-1.6l-0.65,0.11l-0.68,-1.22l0.4,-0.76l-1.34,-0.26l-0.2,-0.83l0.38,-0.98l-0.02,-0.89l-1.75,-1.89l0.35,-0.9l-4.28,-0.47l-1.44,0.05l-1.66,-2.11l-1.24,0.66l-2.21,-0.83l-1.1,4.3l-0.63,-2.14l-1.39,-1.28l0.02,-1.56l1.69,-1.92l0.82,-3.73l1.11,-1.33l-0.28,-1.46l0.69,-1.97l1.19,-0.99l-0.14,-0.82l2.25,-2.45l1,6.85l1.12,2.28l1.39,1.14l1.12,-1.18l2.24,0.61l0.73,2.84l2.89,0.83l0.18,2.54l3.22,-0.75l-0.83,1.18l1.03,0.51l-0.57,1.65l3.74,0.77l-0.17,-2.33l2.39,0.08l0.36,3.71l2.35,0.85l-0.34,0.95l1.4,0.15l0.9,1l1.58,-0.38l0.03,0.98l0.15,1.45l-0.7,0.73l1.39,1.8l-0.01,1.94l0.73,1.04l2.89,-2.15l1.31,0.19l1.16,2.02l-0.45,1.46l0.45,1.99l3.5,-1.3l2.12,1.29l-0.55,2.17l0.33,2.09l1.58,0.8l-0.28,0.63l1.29,1.22l3.59,-0.48l-1.6,-1.97l0.01,-2.04l1.89,-1.47l4.36,0.34l2.2,4.2l1.13,0.66l6.32,-0.88l1.67,0.66l0.51,-1.51l0.8,0.3l-0.74,-2.37l0.73,-0.32l-0.41,-1.33l-1.1,-0.27l-0.13,0.94l-1.75,0.21l-0.90999,-0.71l-0.73001,-1.23l-1.09999,1.14l-0.08,-0.89l-1.07,-0.31l0.03,-1.61l0.73,-0.47l0.72,-0.4l-1.42,-0.84l-0.1,-1.61l-2.16,-0.22l-0.43,2.25l-0.52,-1.07l-0.43,-0.63l-0.17,-1.08l-1.56,-0.86l-0.83,0.53l-0.6,-0.77l-0.13,-0.61l-0.25,-0.78l0.84,-0.73l0.1,-1.16l-1.37,-1.1l2.25,-0.17l-0.36,-1.49l0.22,-0.87l1.65,0.75l0.62,-1.08l-0.44,-1.25l1.03,-1.21l2.41,1.34l-0.39,1.07l0.96,1.75l0.55,-0.3l0.58,0.04l0.6,1.06l1.34,-0.08l1.14,1.91l0.84,-0.5l3.11,0.83l0.97,-0.47l0.83,0.6l-0.53,2.38l-0.93,0.47l1.5,0.44l0.4,2.48l-0.23,0.87l1.63,1.09l2.1,-0.17l-0.12,1.13l-0.25,1.07l-0.94,1.16l-1.68,-2.96l-0.35,1.05l0.57,1.62l-0.61,0.93l2.07,1.61l-0.2,1.36l1.74,1.91l0.04,1.88l0.75,0.9l-1.38,2.96l2.02,2.01l-0.75,0.26l0.55,1.66l1.26,1.38l2.27,0.73l1,-0.51l2.04,0.44l2.55,3.16l1.39,0.06l-1,2.87l1.47,0.32l0.54,1.23l2.03,-0.03l2.22,1.27l2.26,2.75l4.3,0.38l-0.12,-1.38l1.39,-1.06l0.16,-0.94l1.49,-0.64l0.88,1l-0.56,2.12l0.52,0.72l3.73,1.23l1.43,-1l1.38,0.63l1.22,-0.83l1.97,0.3l1.06,0.57l-1.17,1.11l0.23,1.94l1.34,0.61l1.07,-1.41l0.81,-0.12l1.19,0.39l0.1,-1.91l-0.76,-0.95l0.46,-2.18l0.14,-1.27l0.56,-0.81l1.94,-0.9l1.38,-0.89l1.99,-0.21l-1.46,-1.52l0.59,-1.25l-1.01,-1.73l-0.68,0.72l-0.5,0.54l-0.8,0.69l-1.39,-1.32l0.13,-0.68l0.31,-0.57l1.64,0.67l1.32,-1.29l-0.42,-0.93l-1.26,0.1l-0.64,1.07l-1.27,-4.19l0.47,-0.37l1.3,0.74l-0.08,-0.8l0.12,-0.99l0.52,-0.77l0.49,0.69l0.85,-0.04l1.69,0.74l0.68,-1.49l-1.66,0.02l-1.08,-0.77l0.4,-0.88l1.24,1.08l0.53,-0.59l-1.54,-2.1l0.1,-1.82l1.83,0.96l1.51,-0.02l0.83,-1.77l0.67,0.94l0.3,0.61l0.13,1.09l-1.34,0.26l-0.3,0.67l1.02,0.37l0.24,1.7l1.44,1.01l-1.62,0.39l-0.31,0.78l2.49,0.78l0.67,-1.52l0.41,1.3l2.64,-0.06l1.85,2.92l-1.08,1.91l2.62,0.39l-0.11,2.29l1.18,-0.07l-0.29,0.94l0.76,1.78l-1.42,0.34l0.36,0.86l-0.19,0.67l0.53,0.6l0.78,-0.57l0.84,-0.27l1.22,3.41l-0.79,1.74l0.5,0.77l1.57,0.4l-0.51,-1.71l0.49,-1.34l0.92,0.78l0.35,1.59l2.09,1.19l-0.31,0.69l-2.87,0.57l0.94,1.81l-1.7,-0.51l-0.48,0.81l1.67,0.79l2.93,-0.74l1.22,0.3l-0.83,2.16l-4.07,5.12l0.16,1.42l-0.87,0.3l0.04,1.63l-1.53,2.13l1.45,0.99l1.27,4.06l-1.11,4.47l0.57,1.35l1.67,0.5l-0.26,2.04l2.08,3.25l1.09,3.61l-1.4,6.32l0.21,1.84l-1.52,0.75l0.59,2.54l-0.84,2.25l0.14,2.68l-2.51,5.06l-5.36,-1.65l0,0l0.06,0.14l0,0l0.36,1.3l0.9,0.58l-0.28,2.16l0,0l-1.63,0.89l0,0l-1.12,-0.04l0,0l-0.25,0.11l0,0l-2.44,2.46l2.96,7.28l-0.63,2.52l0,0l0,0.32l0,0l0.59,1.46l-0.96,1.22l0,0l-0.21,0.08l0,0l-3.83,0.37l-2.45,4.47l-0.04,1.63l-2.11,2.88l0.15,3.1l0,0l-0.06,0.27l0,0l-1.14,2.05l0.66,1.06l0,0l0.32,0.24l0,0l0.33,-0.16l0,0l0.1,0.16l0,0l0.23,2.51l-0.71,0.99z"/>
  <path fill="#457b9d" id="BD-G" d="m307.41233,149.66628l0.94,0.49l-0.25,0.49l2.94,0.36l1.5,1.04l1.65,0.22l0.76,-0.57l0.68,0.87l2.62,0.31l1.55,-0.61l0.97,1.45l1.48,0.71l2.37,-0.11l0.27,1.68l2.67,-0.17l0.94,-0.99l4.33,-0.43l0.76,-0.97l1.15,-0.19l0.1,-1.26l3.48,-0.32l0.14,0.6l-1.46,1.05l0.21,1.45l1.9,0.08l0.23,1.72l1.52,0.58l3.23,-1.6l1.58,-0.09l1.07,-2.03l3.44,0.78l0.83,-2.94l2.72,1.19l4.95,-1.46l3.07,0.47l5.13,-0.95l6.24,1.18l2.36,-1.5l1.55,0.84l4.14,-0.73l6.09,2.75l0.52,0.35l-0.54,1.39l2.64,0.91l1.86,1.52l1.48,-0.66l2.72,0.9l-1.88,0.32l1.99,2l7.63,2.54l1.41,-0.97l1.67,0.36l0.82,1.08l-0.88,1.61l2.1,0.1l0.54,0.7l5.39,1.37l-0.87,3.59l0.46,2.42l1.63,0.58l1.37,-0.95l1.24,1.96l-1.4,-0.24l-0.63,0.62l1.55,1.13l0.99,-0.01l0.94,-1.22l0.2,3.29l1.25,1.85l-0.89,0.45l0.46,1.8l-0.78,0.87l-2.01,0.33l-1.98,-0.66l-0.21,1.47l-1.29,0.35l-0.08,0.76l-2.16,0.08l-1.33,-0.41l-0.99,-1.21l-1.3,-0.47l-0.49,-1.03l-0.93,0.13l-1.87,-1.3l-1.49,-0.16l-1.99,-2.61l-1.43,1.57l-1.45,-0.1l-0.93,-0.11l-0.25,-0.73l-0.92,0.38l-0.44,1.13l0.94,1.99l-0.94,0.94l0.33,2.19l1.24,0.83l2.09,1.36l0.5,3.37l0.79,0.6l-0.63,2.05l0.71,0.71l-0.86,1.93l1.24,0.73l-3.33,4.92l-1.11,3.23l-1.42,7.91l-0.46,8.23l-4.9,-2.45l-0.49,-1.07l-1.64,1l0.53,1.22l-0.85,1.23l1.04,3.24l-0.55,0.8l0.86,1.43l-0.35,0.78l0.91,0.85l-0.56,0.9l-2.59,-0.24l-1.45,3.8l-3.25,1.42l-7.39,-0.87l-0.95,-1.03l-1.3,0.67l-1.13,-0.32l-0.89,0.69l3.16,4.35l-0.27,1.85l-1.96,-1.06l-0.04,-1.41l-1.59,-1.11l-3.44,2.1l2.01,6.97l-2.8,9.79l-0.2,3.01l-2.02,0.53l-0.91,-1.1l-0.62,-2.68l-2.83,-2.42l0.77,-0.46l-0.08,-1.2l-0.61,-0.79l-2.53,1.31l-0.74,-1.07l-1.55,-0.16l-4.47,-2.67l1.76,10.59l-2.86,0.1l-2.03,-0.97l-0.68,-1.09l-0.97,0.34l-0.7,-1.03l-1.56,-4.13l-0.07,-2.1l-1.83,1.63l1.14,2.74l-0.35,1.16l-0.97,0.12l0.02,2.01l-0.97,1.64l0.59,2.35l-0.77,1.4l-2.07,0.81l-1.1,-0.39l-0.56,0.39l0.18,1.47l-0.82,0.34l-3.96,0.08l-4.57,-1.28l-0.55,-0.93l-4.35,-0.02l-3.17,-1.34l-3.02,0.16l-0.09,2.89l1.82,3.05l-0.53,2.27l-1.55,2.16l0.36,3.16l-6.72,-2.21l0,0l-0.91,-0.46l0.13,-1.57l1.01,0.12l0.49,-2.41l-0.94,-1.98l-1.47,-0.19l0.32,-3.58l-1.19,0.28l-0.93,-0.7l0.27,-1.33l1.85,-0.67l-1.92,-0.66l0.02,-1.62l-0.85,-0.23l1.34,-1.97l0.33,-1.82l2.3,-1.1l1.03,0.34l-0.17,-1.59l-2.85,0.9l-0.67,-0.62l0.76,-1.76l1.12,0.58l0.2,-1.21l0.82,0.33l0.93,-1.05l0.79,0.03l-0.03,-3.04l-1.28,-0.65l-1.03,0.47l-1.25,1.7l-0.34,1.63l0.46,0.55l-1.09,0.21l-7.35,-1.4l-1.99,-2.57l0,0l1.89,-2.66l-0.7,-0.35l-2.82,1.03l1.22,-3.74l5.91,0.28l0.16,-1.49l-2.13,-3.1l0.36,-0.86l1.29,0.25l2.15,-1.46l-1.62,-2.78l-0.98,0.21l-0.82,-0.63l-0.18,-1.35l2.07,0.06l0.29,-0.84l-1.34,-4.78l-1.43,-0.08l0.81,1.34l-1.63,-0.63l-1.64,2.25l-0.17,-1.51l1.02,-0.53l-2.49,-0.68l-1.02,0.78l-0.64,-0.32l2,-2.43l0.76,1.43l0.68,-0.62l2.49,-2.98l1.89,-4.58l-3.36,-1.78l0.64,-0.91l-0.3,-1.24l-2.16,-0.86l-0.23,-1.48l1.78,0.9l-0.01,-0.86l0.89,0.02l0.19,-1.69l1.42,-0.02l0.81,-0.89l-1.01,-1.5l1.78,-0.31l0.06,-1.57l-1.85,-0.81l0.84,-0.99l-0.46,-1.61l-1.53,1.55l-2.47,-1.57l-1.7,0.86l-0.35,-0.74l-1.62,-0.02l1.03,-0.77l-0.41,-1.36l0.69,0.36l0.38,-0.74l-0.68,0.05l0.02,-0.73l-1.2,-0.14l-0.18,-0.6l0.92,-0.61l1.37,0.29l-0.12,-0.93l1.3,-0.93l-1.39,-0.84l1.4,-2.27l-0.17,-1.88l-1.54,-0.91l-1.01,1.4l0.3,0.81l-1.33,1.05l1.25,1.5l-1.49,0.22l-1.51,-2.35l0.59,-2l0.83,-0.64l-0.41,-0.81l-0.97,-0.04l-1.16,-3.82l-2.12,-1.64l-3.47,-0.54l-1.25,2.26l-0.9,-0.22l-0.44,-1.07l-1.3,0.39l-1.08,-2.19l-3.37,-0.08l-0.1,-2.55l-0.64,0.05l1.96,-0.87l0.37,-1.25l-1.05,-1.44l-1.57,-0.39l0.33,-3l-1.24,-1.68l0.52,-0.86l2.35,-0.99l-2.93,-0.86l-0.2,-3.37l1.39,-0.33l1.18,1.06l1.5,-0.48l-0.26,-1.86l-1.96,-1.81l0.59,-1.13l-0.25,-2.88l1.64,-0.72l-0.52,-1.45l0,0l10.68,-2.95l4.64,0.43l6.7,-0.66l4.5,0.53l2.08,-1l1.29,0.92z"/>
 </g>

</svg>